<?xml version="1.0" standalone="no"?><!DOCTYPE svg PUBLIC "-//W3C//DTD SVG 1.1//EN" "http://www.w3.org/Graphics/SVG/1.1/DTD/svg11.dtd"><svg t="1718977481931" class="icon" viewBox="0 0 1024 1024" version="1.1" xmlns="http://www.w3.org/2000/svg" p-id="1198" xmlns:xlink="http://www.w3.org/1999/xlink" width="200" height="200"><path d="M241.408 334.1568c69.0432-52.736 143.0784-195.0976 310.7584-195.0976s263.7568 135.296 293.1712 211.7632 52.9408 130.6112 86.272 166.2976 78.4384 245.4784-115.6864 316.0832-713.472 91.0592-741.1968-182.3488C49.2288 399.5392 170.8032 388.096 241.408 334.1568z" fill="#DADAF7" p-id="1199"></path><path d="M507.7504 901.6576h-3.1744c-100.0704-0.2816-240.3072-13.7728-340.1984-76.4672-67.4048-42.3168-105.2928-100.1984-112.5888-172.032C29.44 432.64 117.1456 381.8496 187.5968 341.0432c14.4896-8.3968 28.1856-16.3072 39.808-25.1904 16.2048-12.3648 34.0224-31.5648 52.864-51.8912 57.9328-62.4384 137.2672-147.9424 271.872-147.9424 179.6352 0 282.3168 142.3872 314.6752 226.5344 30.3104 78.7968 52.2752 127.4624 81.6128 158.8224 24.0896 25.7792 48.1792 107.9808 28.7232 189.1328-13.0048 54.2464-50.176 126.7968-153.3952 164.3264-79.5392 28.9536-200.3712 46.8224-316.0064 46.8224zM255.3856 352.4608c-13.9776 10.6752-29.5936 19.712-44.6976 28.4672-65.1008 37.6832-132.4032 76.672-113.0496 267.5968 5.7856 56.9856 36.48 103.296 91.2384 137.6512 154.2912 96.8192 469.76 79.7184 619.1872 25.3696 67.4048-24.5248 109.2352-68.8384 124.3136-131.7632 16.128-67.2768-5.0176-133.4784-17.5872-146.944-37.9136-40.576-63.616-102.7072-90.9568-173.7472-28.1344-73.1648-117.0176-196.992-271.6672-196.992-114.5088 0-183.04 73.856-238.1056 133.1968-20.224 21.8112-39.3472 42.4192-58.6752 57.1648z" fill="#474E54" p-id="1200"></path><path d="M539.3664 470.5024m-187.7248 0a187.7248 187.7248 0 1 0 375.4496 0 187.7248 187.7248 0 1 0-375.4496 0Z" fill="#F4CA00" p-id="1201"></path><path d="M539.3664 681.2672c-116.1984 0-210.7648-94.5408-210.7648-210.7648s94.5408-210.7648 210.7648-210.7648 210.7648 94.5408 210.7648 210.7648-94.5408 210.7648-210.7648 210.7648z m0-375.424c-90.8032 0-164.6848 73.8816-164.6848 164.6848s73.8816 164.6848 164.6848 164.6848 164.6848-73.8816 164.6848-164.6848-73.8816-164.6848-164.6848-164.6848z" fill="#474E54" p-id="1202"></path><path d="M449.3824 420.0704c-3.7888 0-7.5776-1.1776-10.8288-3.6608a17.92 17.92 0 0 1-3.4304-25.1136c34.4576-45.3376 93.7216-63.1552 147.5072-44.3136a17.90976 17.90976 0 0 1 10.9824 22.8352 17.90976 17.90976 0 0 1-22.8352 10.9824 94.7712 94.7712 0 0 0-107.1104 32.1792 17.94816 17.94816 0 0 1-14.2848 7.0912z" fill="#F7F8F8" p-id="1203"></path><path d="M299.3664 764.6464c-1.2032 0-2.4064-0.128-3.6352-0.3584-72.4992-14.9248-100.8384-62.0544-111.8464-98.9696-11.5456-38.7328-6.4-73.8048-6.1696-75.2896 1.4848-9.7792 10.6496-16.4864 20.4288-15.0016a17.92 17.92 0 0 1 15.0272 20.3776c-0.6656 4.5824-15.2064 112.1792 89.8048 133.7856 9.7024 1.9968 15.9232 11.4688 13.952 21.1712-1.7664 8.448-9.216 14.2848-17.5616 14.2848z" fill="#F7F8F8" p-id="1204"></path><path d="M794.112 726.528c-6.5024 0-12.7744-3.5584-15.9488-9.728-4.5312-8.8064-1.0496-19.6096 7.7568-24.1408 48.768-25.0624 43.5456-82.816 43.3152-85.248-0.9984-9.8048 6.144-18.6368 15.9488-19.6608 9.8048-1.024 18.6112 6.0416 19.6864 15.8464 0.384 3.4304 8.3712 84.48-62.5664 120.96-2.6368 1.3312-5.4528 1.9712-8.192 1.9712z" fill="#F7F8F8" p-id="1205"></path></svg>