<?xml version="1.0" standalone="no"?><!DOCTYPE svg PUBLIC "-//W3C//DTD SVG 1.1//EN" "http://www.w3.org/Graphics/SVG/1.1/DTD/svg11.dtd"><svg t="1716973592952" class="icon" viewBox="0 0 1024 1024" version="1.1" xmlns="http://www.w3.org/2000/svg" p-id="8237" xmlns:xlink="http://www.w3.org/1999/xlink" width="200" height="200"><path d="M217.8 448.3c-1.07 0-2.15-0.1-3.24-0.3l-99.28-18.13c-9.74-1.78-16.19-11.11-14.41-20.85 1.79-9.73 11.16-16.2 20.85-14.41L221 412.75c9.74 1.78 16.19 11.11 14.41 20.85-1.58 8.64-9.12 14.7-17.61 14.7zM314.45 296.23c-4.13 0-8.29-1.42-11.66-4.33l-78.55-67.47c-7.51-6.45-8.37-17.76-1.93-25.27 6.46-7.5 17.77-8.36 25.27-1.92l78.55 67.47c7.51 6.45 8.37 17.76 1.93 25.27a17.904 17.904 0 0 1-13.61 6.25zM514.28 226.74c-9.9 0-17.92-8.02-17.92-17.92v-98.7c0-9.9 8.02-17.92 17.92-17.92 9.9 0 17.92 8.02 17.92 17.92v98.7c0 9.89-8.02 17.92-17.92 17.92zM703.25 289.12c-4.59 0-9.17-1.75-12.67-5.25-7-7-7-18.35 0-25.34l66.41-66.41c7-7 18.34-7 25.34 0s7 18.35 0 25.34l-66.41 66.41c-3.5 3.5-8.08 5.25-12.67 5.25zM805.9 448.3c-8.55 0-16.12-6.14-17.64-14.85-1.7-9.75 4.83-19.03 14.59-20.73L907 394.59c9.84-1.72 19.03 4.84 20.73 14.58 1.7 9.75-4.83 19.03-14.59 20.73l-104.16 18.13c-1.04 0.18-2.07 0.27-3.08 0.27z" fill="#480662" p-id="8238"></path><path d="M674.06 694.76c31.42-36.81 50.49-84.48 50.49-136.67 0-116.4-94.36-210.76-210.76-210.76-116.4 0-210.76 94.36-210.76 210.76 0 52.19 19.07 99.86 50.49 136.67h320.54z" fill="#FF8681" p-id="8239"></path><path d="M513.79 347.34c116.4 0 210.76 94.36 210.76 210.76 0 52.19-19.07 99.86-50.5 136.67H353.52c-31.42-36.81-50.49-84.48-50.49-136.67 0-116.4 94.36-210.76 210.76-210.76m0-35.84c-135.98 0-246.6 110.63-246.6 246.6 0 58.51 20.98 115.31 59.07 159.94a35.829 35.829 0 0 0 27.26 12.57h320.53c10.49 0 20.45-4.59 27.26-12.57 38.1-44.63 59.08-101.43 59.08-159.94 0-135.98-110.62-246.6-246.6-246.6z" fill="#480662" p-id="8240"></path><path d="M159.5 714.65h750.57" fill="#47A1DF" p-id="8241"></path><path d="M910.07 732.57H159.51c-9.9 0-17.92-8.02-17.92-17.92 0-9.9 8.02-17.92 17.92-17.92h750.56c9.9 0 17.92 8.02 17.92 17.92 0 9.9-8.02 17.92-17.92 17.92z" fill="#480662" p-id="8242"></path><path d="M220.99 794.67h582.24" fill="#47A1DF" p-id="8243"></path><path d="M803.24 812.59H220.99c-9.9 0-17.92-8.02-17.92-17.92s8.02-17.92 17.92-17.92h582.25c9.9 0 17.92 8.02 17.92 17.92s-8.03 17.92-17.92 17.92z" fill="#480662" p-id="8244"></path><path d="M292.54 874.68h416.99" fill="#47A1DF" p-id="8245"></path><path d="M709.54 892.6h-417c-9.9 0-17.92-8.02-17.92-17.92s8.02-17.92 17.92-17.92h417c9.9 0 17.92 8.02 17.92 17.92s-8.03 17.92-17.92 17.92z" fill="#480662" p-id="8246"></path><path d="M513.79 347.34c-0.57 0-1.12 0.08-1.68 0.08v347.34h161.95c31.42-36.81 50.49-84.48 50.49-136.67 0-116.39-94.36-210.75-210.76-210.75z" fill="#E66863" p-id="8247"></path></svg>