<?xml version="1.0" standalone="no"?><!DOCTYPE svg PUBLIC "-//W3C//DTD SVG 1.1//EN" "http://www.w3.org/Graphics/SVG/1.1/DTD/svg11.dtd"><svg t="1718762702141" class="icon" viewBox="0 0 1024 1024" version="1.1" xmlns="http://www.w3.org/2000/svg" p-id="15589" xmlns:xlink="http://www.w3.org/1999/xlink" width="200" height="200"><path d="M512 73.142857a438.857143 438.857143 0 1 1 0 877.714286A438.857143 438.857143 0 0 1 512 73.142857z" fill="#D07F45" p-id="15590"></path><path d="M888.832 286.939429L128.877714 726.235429a437.394286 437.394286 0 0 1-11.702857-22.454858L875.081143 265.508571c4.754286 7.021714 9.289143 14.189714 13.677714 21.430858zM807.497143 187.611429c19.163429 17.554286 36.790857 36.644571 52.662857 57.270857L106.642286 680.521143a435.492571 435.492571 0 0 1-23.405715-74.166857l724.333715-418.742857z" fill="#FFFFFF" p-id="15591"></path><path d="M512 140.726857a371.346286 371.346286 0 1 0 0 742.692572A371.346286 371.346286 0 0 0 512 140.726857z" fill="#FCE815" p-id="15592"></path><path d="M830.317714 320.731429c-4.388571-7.314286-8.996571-14.336-13.824-21.211429l-640.731428 370.395429c3.657143 7.68 7.460571 15.140571 11.629714 22.528l642.925714-371.712zM165.741714 646.436571l635.392-367.396571a373.394286 373.394286 0 0 0-55.442285-55.588571L145.115429 570.514286c4.242286 26.331429 11.117714 51.712 20.48 75.922285z" fill="#FFF9BC" p-id="15593"></path><path d="M512 190.171429a321.828571 321.828571 0 1 0 0 643.657142 321.828571 321.828571 0 0 0 0-643.657142z" fill="#FFDD6F" p-id="15594"></path><path d="M782.262857 337.188571l-556.617143 321.755429a321.828571 321.828571 0 0 0 608.182857-147.017143 320.365714 320.365714 0 0 0-51.565714-174.811428z" fill="#FFC50D" p-id="15595"></path><path d="M833.828571 512a321.828571 321.828571 0 1 0-643.657142 0 321.828571 321.828571 0 0 0 643.657142 0zM275.748571 512a236.251429 236.251429 0 1 1 472.502858 0 236.251429 236.251429 0 0 1-472.502858 0z" fill="#FFB13B" p-id="15596"></path></svg>