<?xml version="1.0" standalone="no"?><!DOCTYPE svg PUBLIC "-//W3C//DTD SVG 1.1//EN" "http://www.w3.org/Graphics/SVG/1.1/DTD/svg11.dtd"><svg t="1716973736786" class="icon" viewBox="0 0 1024 1024" version="1.1" xmlns="http://www.w3.org/2000/svg" p-id="16657" xmlns:xlink="http://www.w3.org/1999/xlink" width="200" height="200"><path d="M746.293117 710.971657c-235.546667 0-433.341522-166.069293-427.15359-413.116899 1.569752-62.679551 14.490016-122.064057 38.430265-175.613669 7.125281-15.937994-10.021238-31.80231-25.556049-23.835872-147.260925 75.515904-248.182452 228.465388-248.182453 405.344888 0 251.791653 204.774827 442.529789 456.56648 442.529789 173.193551 0 323.582723-107.004059 397.813355-255.30978 8.094352-16.172331-10.191106-33.453926-25.767874-24.26566-50.963719 30.064736-105.717763 44.267203-166.150134 44.267203z" fill="#F7D11E" p-id="16658"></path><path d="M540.39777 964.811969c-266.415722 0-475.106742-202.518437-475.106741-461.06084 0-178.506557 98.959849-340.152097 258.270204-421.834445 16.72594-8.588609 38.193881-2.6432 48.294937 12.951987 6.770194 10.426467 7.747451 23.477714 2.643199 34.926464-22.934339 51.280944-35.31532 107.975177-36.818557 168.524204-2.660596 105.793488 33.125445 199.839421 103.503329 271.991718 75.68168 77.609589 186.896644 122.121362 305.117163 122.121362 57.906851 0 109.169375-13.639648 156.721391-41.687448 16.85283-9.991562 39.877219-3.882424 50.176796 12.806677 6.733355 10.887978 7.330966 24.24724 1.593287 35.71441-80.750115 161.318082-243.409752 265.545912-414.395008 265.545911z m-199.74937-850.1413c-147.055241 75.546603-238.287081 224.538963-238.287081 389.08046 0 237.752916 192.399985 423.988504 438.035428 423.988504 157.083641 0 306.727847-96.190783 381.233748-245.065462-53.199643 31.514761-110.617353 46.828538-175.330215 46.828538-128.157845 0-249.03896-48.592718-331.671958-133.308145-77.490885-79.473029-116.915803-182.796256-114.019847-298.79927 1.629103-65.472154 15.096836-126.953414 40.039925-182.724625z" fill="#885F44" p-id="16659"></path><path d="M826.38013 145.966443v1.806135c-49.377594 0-89.406263 40.028669-89.406262 89.406263h-1.806136c0-49.377594-40.028669-89.406263-89.406262-89.406263v-1.806135c49.377594 0 89.406263-40.028669 89.406262-89.407286h1.806136c-0.001023 49.378617 40.027645 89.407286 89.406262 89.407286z" fill="#F7D11E" p-id="16660"></path><path d="M755.514129 255.717056h-38.881542v-18.536169c0-39.081087-31.785937-70.876234-70.867024-70.876234H627.229394v-37.071313l18.536169-1.801019c39.081087 0 70.867024-31.795147 70.867024-70.876234V38.020942h37.071314l1.810228 18.536168c0 39.081087 31.785937 70.876234 70.867025 70.876234h18.536168v37.071314l-18.536168 1.801019c-39.081087 0-70.867024 31.795147-70.867025 70.876234v18.535145z m-50.683332-108.85215a108.87978 108.87978 0 0 1 31.242561 31.251771 108.892059 108.892059 0 0 1 31.242562-31.251771 108.733447 108.733447 0 0 1-31.242562-31.242562 108.74675 108.74675 0 0 1-31.242561 31.242562z" fill="#885F44" p-id="16661"></path><path d="M705.966667 447.400726v1.003864c-27.431769 0-49.67026 22.23849-49.67026 49.670259h-1.003863c0-27.431769-22.23849-49.67026-49.67026-49.670259v-1.003864c27.431769 0 49.67026-22.23849 49.67026-49.670259h1.003863c0 27.432793 22.237467 49.67026 49.67026 49.670259z" fill="#F7D11E" p-id="16662"></path><path d="M674.836669 516.612041h-38.08541V498.076896c0-17.169031-13.974269-31.134091-31.134091-31.134091h-18.536169v-37.071314l18.536169-1.004887c17.159822 0 31.134091-13.96506 31.134091-31.134091v-18.536168h37.071313l1.014097 18.536168c0 17.169031 13.974269 31.134091 31.134091 31.134091h18.536168v37.071314l-18.536168 1.004887c-17.159822 0-31.134091 13.96506-31.134091 31.134091v18.535145z m-23.061229-68.711941a70.369697 70.369697 0 0 1 4.018524 4.027733 70.369697 70.369697 0 0 1 4.018523-4.027733 67.351967 67.351967 0 0 1-4.018523-4.018524 67.657936 67.657936 0 0 1-4.018524 4.018524z" fill="#885F44" p-id="16663"></path><path d="M886.58635 347.056344v1.003863c-27.431769 0-49.67026 22.23849-49.670259 49.67026h-1.003863c0-27.431769-22.23849-49.67026-49.67026-49.67026v-1.003863c27.431769 0 49.67026-22.23849 49.67026-49.67026h1.003863c0 27.432793 22.23849 49.67026 49.670259 49.67026z" fill="#F7D11E" p-id="16664"></path><path d="M855.452259 416.267659h-38.06699V397.73149c0-17.169031-13.974269-31.134091-31.134091-31.134091h-18.536169v-37.071314l18.536169-1.004886c17.159822 0 31.134091-13.96506 31.134091-31.134091v-18.536169h37.071313l0.995677 18.536169c0 17.169031 13.974269 31.134091 31.134091 31.134091h18.536169v37.071313l-18.536169 1.004887c-17.159822 0-31.134091 13.96506-31.134091 31.134091v18.536169z m-23.042809-68.703755a67.195402 67.195402 0 0 1 4.018524 4.009313 61.854766 61.854766 0 0 1 4.000104-4.009313 64.412009 64.412009 0 0 1-4.000104-4.018524 70.209038 70.209038 0 0 1-4.018524 4.018524z" fill="#885F44" p-id="16665"></path></svg>