<?xml version="1.0" standalone="no"?><!DOCTYPE svg PUBLIC "-//W3C//DTD SVG 1.1//EN" "http://www.w3.org/Graphics/SVG/1.1/DTD/svg11.dtd"><svg t="1720405764683" class="icon" viewBox="0 0 1024 1024" version="1.1" xmlns="http://www.w3.org/2000/svg" p-id="11592" xmlns:xlink="http://www.w3.org/1999/xlink" width="200" height="200"><path d="M487.04 471.52H107.84v452.288c0 35.328 28.736 63.808 64.16 63.808h315.04V471.52z m50.56 0h379.2v452.288a64 64 0 0 1-64.128 63.808H537.6V471.52z m-50.56-242.56H95.776A64.096 64.096 0 0 0 32 293.088v74.464c0 35.52 28.544 64.128 63.776 64.128H487.04V228.96z m50.56 0h391.264c35.232 0 63.776 28.608 63.776 64.128v74.464a64.096 64.096 0 0 1-63.776 64.128H537.6V228.96z m-50.56-54.72L352.576 58.88C315.52 27.136 254.08 25.632 215.552 55.68l21.856-17.024c-27.52 21.44-50.304 67.84-50.304 103.232V204.48h299.936v-30.208z m50.56-2.432l114.656-109.472c35.328-33.728 97.632-40.32 139.2-14.752l-5.376-3.328c30.144 18.56 54.56 62.304 54.56 97.632V204.48H537.6V171.808z" fill="#ffffff" p-id="11593"></path></svg>