<?xml version="1.0" standalone="no"?><!DOCTYPE svg PUBLIC "-//W3C//DTD SVG 1.1//EN" "http://www.w3.org/Graphics/SVG/1.1/DTD/svg11.dtd"><svg t="1717056001925" class="icon" viewBox="0 0 1109 1024" version="1.1" xmlns="http://www.w3.org/2000/svg" p-id="12367" xmlns:xlink="http://www.w3.org/1999/xlink" width="216.6015625" height="200"><path d="M214.860381 504.554977l313.501604 177.912587-180.941794 308.125828-111.782009-166.307737-201.719595-11.51952 180.941794-308.211158z" fill="#FC5C59" p-id="12368"></path><path d="M347.420191 1023.530686a34.985209 34.985209 0 0 1-28.500146-15.146035l-102.225074-151.631016-185.037623-11.092871a34.430565 34.430565 0 0 1-27.518854-17.876588 33.278613 33.278613 0 0 1 0.383984-32.425316l180.941794-305.480605a34.259906 34.259906 0 0 1 45.224783-11.988834l313.501604 177.869922a33.065289 33.065289 0 0 1 12.671472 44.456815L375.877672 1008.384651a34.046581 34.046581 0 0 1-27.604183 15.146035h-0.895963zM90.449565 782.474064l147.023207 8.916961a34.515895 34.515895 0 0 1 26.238907 14.676722l80.977959 120.95496 135.674347-232.566309-254.197409-144.548644-135.674347 232.56631z" fill="#333333" p-id="12369"></path><path d="M890.245573 504.554977l-313.501604 177.912587 180.941794 308.125828 111.270031-166.307737 202.231573-11.51952-180.941794-308.211158z" fill="#FC5C59" p-id="12370"></path><path d="M757.728428 1023.530686a34.003917 34.003917 0 0 1-28.542811-16.895296l-180.899129-308.211158a33.022624 33.022624 0 0 1 12.159493-44.456814l313.501605-177.912587a34.72922 34.72922 0 0 1 45.224782 12.031499l180.941794 308.168493a33.278613 33.278613 0 0 1 0 32.46798 35.326528 35.326528 0 0 1-28.030832 17.791259l-185.037624 10.666222-101.75576 152.100329a34.985209 34.985209 0 0 1-27.604183 14.250073z m-135.759677-329.543602l135.717012 232.56631 81.447273-120.954961a33.619933 33.619933 0 0 1 26.238907-14.676721l146.980542-8.874297-135.674347-232.56631-254.709387 144.505979z" fill="#333333" p-id="12371"></path><path d="M501.653764 822.493729l-9.044956 5.802425a63.570685 63.570685 0 0 1-85.500438-18.217907l-3.157201-5.375776-4.991792-9.77026a90.748219 90.748219 0 0 0-85.457773-48.467314H300.787467a62.504062 62.504062 0 0 1-66.045248-58.237573v-17.36461a88.700304 88.700304 0 0 0-49.320612-84.049831l-9.940919-4.906462a61.309445 61.309445 0 0 1-23.977667-88.48698l5.887754-9.343611a87.676347 87.676347 0 0 0 0-96.934628l-5.887754-8.874296a61.181451 61.181451 0 0 1 18.559226-85.372443l5.418441-3.583851 9.940919-4.906462a88.742969 88.742969 0 0 0 49.747261-83.153869v-11.092871a62.205408 62.205408 0 0 1 58.834882-64.935961h17.620599A90.790884 90.790884 0 0 0 397.210116 77.650098l4.991792-9.812925c7.551685-14.634057 20.692471-25.684263 36.56381-30.761384 15.871339-5.119787 33.150619-3.797175 47.998 3.66918l5.887755 3.114537 9.044956 6.229074c29.993417 19.156535 68.647806 19.156535 98.598559 0l9.087621-6.229074a64.423982 64.423982 0 0 1 87.292363 18.217907l3.157202 5.75976 4.991792 9.812925a90.748219 90.748219 0 0 0 85.500437 47.998h10.836882a63.570685 63.570685 0 0 1 45.395442 15.914004c12.372818 11.007541 19.839173 26.409566 20.649806 42.792883v17.36461c-1.706596 34.985209 17.577934 67.709179 49.320612 83.623182l9.471605 4.863798c14.932711 7.423691 26.153577 20.351152 31.358693 35.966501 5.119787 15.572684 3.83984 32.55331-3.75451 47.187367a23.977668 23.977668 0 0 1-3.626515 5.333111l-5.887755 8.916962a87.676347 87.676347 0 0 0 0 96.934628l5.887755 9.343611c18.516562 28.500146 10.239573 66.386567-18.559227 84.903129l-5.84509 3.114537-9.51427 4.906462a88.700304 88.700304 0 0 0-49.320612 84.049831v10.666222c0.853298 16.425982-4.949127 32.467981-16.127328 44.670139-11.220866 12.159493-26.87888 19.455189-43.560851 20.265822h-17.193951a90.748219 90.748219 0 0 0-85.500437 48.467314l-4.991792 9.812925c-15.871339 30.292071-53.715095 42.23824-84.56181 26.665555l-5.887755-3.114537-9.044956-5.802425c-29.865422-18.943211-68.263822-18.943211-98.129245 0z" fill="#FFC612" p-id="12372"></path><path d="M643.68518 871.857006a96.763968 96.763968 0 0 1-45.224783-10.666222l-8.575642-4.863798-9.51427-5.802425a56.914962 56.914962 0 0 0-61.52277 0l-9.514271 5.802425a98.641223 98.641223 0 0 1-73.810257 13.908754 97.275947 97.275947 0 0 1-61.864089-41.939586 56.658973 56.658973 0 0 1-4.991792-8.916961l-4.991792-9.300946a58.066914 58.066914 0 0 0-53.331112-30.292071h-7.67968a96.934628 96.934628 0 0 1-69.757093-23.593684 93.649431 93.649431 0 0 1-32.083997-65.27728v-23.167035a55.464356 55.464356 0 0 0-30.71872-52.477813l-9.983584-4.863798a95.612016 95.612016 0 0 1-47.998-55.464355 93.692096 93.692096 0 0 1 5.973085-72.615641l4.949127-8.447648 5.887754-9.386276c12.244823-18.345902 12.244823-42.067581 0-60.456148l-5.887754-8.874296a93.862756 93.862756 0 0 1-14.378068-72.615641 95.185367 95.185367 0 0 1 42.878214-60.797467l9.044956-5.333111 9.51427-4.906463c19.881838-9.727595 31.998667-30.206741 30.71872-52.051164v-7.551685c-2.559893-51.965835 37.673097-96.465314 90.49223-100.049165h20.820466a58.536228 58.536228 0 0 0 53.331111-30.206741l4.991792-9.812925a96.849298 96.849298 0 0 1 57.170951-47.358027 98.769218 98.769218 0 0 1 74.492896 6.442399l8.575643 4.906462 9.51427 6.229074a56.914962 56.914962 0 0 0 61.52277 0l9.471605-6.229074a98.257239 98.257239 0 0 1 132.55981 29.353443l4.991792 8.874297 4.949127 9.812925c10.410233 19.28453 31.145369 31.060039 53.373777 30.206741h10.879546c53.075122-2.986542 98.598558 36.777134 101.75576 88.956294v20.905795c-1.237282 21.844423 10.879547 42.280905 30.761385 52.051165l9.514271 5.290446c22.996375 11.263531 40.446315 31.102704 48.424649 55.080372a92.838798 92.838798 0 0 1-5.887755 72.530311c-1.407941 2.986542-3.071872 5.84509-4.991792 8.490313l-5.887755 9.34361a55.251031 55.251031 0 0 0 0 60.456148l6.357069 9.386276a93.862756 93.862756 0 0 1 14.335402 72.572976 95.185367 95.185367 0 0 1-42.835548 60.797467l-9.044957 4.906462-9.51427 4.863797a55.464356 55.464356 0 0 0-30.292071 48.040665v10.666222c2.559893 52.051165-37.630432 96.507979-90.492229 100.049165h-20.820466a57.5976 57.5976 0 0 0-53.331111 30.292071l-4.991793 9.77026a97.446606 97.446606 0 0 1-87.335027 53.331111z m-327.026374-159.652015a125.136119 125.136119 0 0 1 110.800717 66.727887l4.991792 9.812924a30.292071 30.292071 0 0 0 41.598266 10.666222l9.044957-5.802424a126.672055 126.672055 0 0 1 135.717012 0l9.044956 5.75976a29.865422 29.865422 0 0 0 41.640932-10.666223l4.949127-9.812924a123.856173 123.856173 0 0 1 117.157785-66.685222h11.306195a30.121412 30.121412 0 0 0 21.759094-8.746302 29.097454 29.097454 0 0 0 8.532978-21.460439v-10.666222a121.936253 121.936253 0 0 1 67.410524-115.1952l9.983584-5.333111a28.585476 28.585476 0 0 0 14.719387-17.791259 28.030832 28.030832 0 0 0-3.413191-22.697721l-5.887755-9.343611a120.570976 120.570976 0 0 1 0-133.370443l5.887755-9.386275a28.926795 28.926795 0 0 0 3.242531-22.783051 29.438773 29.438773 0 0 0-14.548727-18.089913l-9.51427-4.906462a121.509604 121.509604 0 0 1-67.837174-115.1952v-8.874297a29.097454 29.097454 0 0 0-8.746302-21.20445 30.121412 30.121412 0 0 0-21.588434-8.575643h-11.306195a124.325486 124.325486 0 0 1-117.157785-66.258572l-4.949127-9.812925a30.292071 30.292071 0 0 0-41.598267-11.092871l-9.087621 6.229074a126.672055 126.672055 0 0 1-135.674347 0l-9.087622-6.229074a29.865422 29.865422 0 0 0-41.598266 11.092871l-4.991792 9.812925a124.7948 124.7948 0 0 1-117.584434 66.258572h-10.879547a29.694763 29.694763 0 0 0-21.716429 8.447648 28.62814 28.62814 0 0 0-8.575642 21.332445v11.092871a121.509604 121.509604 0 0 1-67.837174 115.1952l-9.983584 4.906462a28.926795 28.926795 0 0 0-9.940919 40.915629l5.887755 9.343611c26.87888 40.531645 26.87888 92.838798 0 133.413107l-5.887755 8.874297a28.500146 28.500146 0 0 0-3.413191 22.868381 29.012124 29.012124 0 0 0 14.719387 18.047248l9.51427 5.333111a121.594934 121.594934 0 0 1 69.629099 114.768551v10.666222a29.097454 29.097454 0 0 0 8.575642 21.46044 30.121412 30.121412 0 0 0 21.759094 8.746302h10.836882l4.095829-1.791926z" fill="#333333" p-id="12373"></path><path d="M298.654223 426.64889a255.989334 255.989334 0 1 0 511.978667 0 255.989334 255.989334 0 0 0-511.978667 0z" fill="#FFFFFF" fill-opacity=".5" p-id="12374"></path><path d="M538.260239 597.308445V300.872797l-87.548352 16.895296V263.498354l105.979584-21.503104h47.102038V597.308445z" fill="#333333" p-id="12375"></path></svg>