<?xml version="1.0" encoding="utf-8"?>
<svg version="1.1" xmlns:xlink="http://www.w3.org/1999/xlink" width="24px" height="24px" xmlns="http://www.w3.org/2000/svg">
  <g transform="matrix(1 0 0 1 -2454 -1494 )">
    <path d="M 14.839285714285714 18.013392857142858  C 15.410714285714285 18.334821428571427  15.772321428571429 18.16517857142857  15.924107142857142 17.504464285714285  L 17.892857142857142 8.223214285714286  C 17.973214285714285 7.83035714285714  17.926339285714285 7.54910714285714  17.752232142857142 7.3794642857142865  C 17.578125 7.209821428571428  17.34821428571429 7.17857142857143  17.0625 7.2857142857142865  L 5.491071428571429 11.745535714285714  C 5.232142857142858 11.843749999999998  5.055803571428571 11.955357142857142  4.962053571428571 12.080357142857142  C 4.868303571428571 12.205357142857142  4.857142857142858 12.323660714285715  4.928571428571429 12.435267857142858  C 5 12.546874999999998  5.142857142857142 12.633928571428571  5.357142857142858 12.696428571428573  L 8.316964285714285 13.620535714285714  L 15.1875 9.294642857142858  C 15.375 9.169642857142856  15.517857142857146 9.142857142857139  15.61607142857143 9.214285714285714  C 15.678571428571429 9.258928571428571  15.660714285714288 9.325892857142854  15.5625 9.41517857142857  L 10.004464285714285 14.4375  L 9.790178571428571 17.491071428571427  C 9.995535714285715 17.491071428571427  10.196428571428573 17.392857142857142  10.392857142857142 17.196428571428573  L 11.839285714285715 15.803571428571427  L 14.839285714285714 18.013392857142858  Z M 23.049107142857142 7.3392857142857135  C 23.683035714285715 8.82142857142857  24 10.375  24 12  C 24 13.624999999999998  23.683035714285715 15.178571428571427  23.049107142857142 16.660714285714285  C 22.415178571428577 18.142857142857142  21.562500000000004 19.419642857142858  20.49107142857143 20.491071428571427  C 19.419642857142858 21.5625  18.142857142857146 22.415178571428573  16.660714285714285 23.049107142857142  C 15.17857142857143 23.683035714285715  13.625 24  12 24  C 10.375 24  8.821428571428573 23.683035714285715  7.339285714285715 23.049107142857142  C 5.857142857142858 22.415178571428573  4.580357142857142 21.5625  3.5089285714285716 20.491071428571427  C 2.4375 19.419642857142858  1.5848214285714286 18.142857142857142  0.9508928571428571 16.660714285714285  C 0.3169642857142857 15.178571428571427  0 13.624999999999998  0 12  C 0 10.375  0.3169642857142857 8.82142857142857  0.9508928571428571 7.3392857142857135  C 1.5848214285714286 5.857142857142855  2.4375 4.580357142857143  3.5089285714285716 3.5089285714285703  C 4.580357142857142 2.4375  5.857142857142858 1.584821428571428  7.339285714285715 0.9508928571428568  C 8.821428571428573 0.3169642857142856  10.375 0  12 0  C 13.625 0  15.17857142857143 0.3169642857142856  16.660714285714285 0.9508928571428568  C 18.142857142857146 1.584821428571428  19.419642857142858 2.4375  20.49107142857143 3.5089285714285703  C 21.562500000000004 4.580357142857143  22.415178571428577 5.857142857142855  23.049107142857142 7.3392857142857135  Z " fill-rule="nonzero" fill="#ffffff" stroke="none" transform="matrix(1 0 0 1 2454 1494 )" />
  </g>
</svg>