<?xml version="1.0" standalone="no"?><!DOCTYPE svg PUBLIC "-//W3C//DTD SVG 1.1//EN" "http://www.w3.org/Graphics/SVG/1.1/DTD/svg11.dtd"><svg t="1728886390822" class="icon" viewBox="0 0 1131 1024" version="1.1" xmlns="http://www.w3.org/2000/svg" p-id="10851" xmlns:xlink="http://www.w3.org/1999/xlink" width="220.8984375" height="200"><path d="M867.813053 930.762105c20.749474 0 37.726316 21.018947 37.726315 46.618948 0 25.653895-16.976842 46.618947-37.726315 46.618947h-603.621053c-20.749474 0-37.726316-20.965053-37.726316-46.618947s16.976842-46.618947 37.726316-46.618948h603.621053zM1018.179368 0c3.826526 0 7.437474 0.269474 11.210106 0.808421 3.772632 0.538947 7.383579 1.077895 10.994526 1.940211 3.557053 0.862316 7.114105 1.940211 10.725053 3.341473 3.557053 1.347368 7.114105 2.694737 10.509473 4.688842 3.341474 1.886316 6.682947 3.557053 10.024421 5.766737 3.341474 2.209684 6.467368 4.419368 9.647158 7.168 3.125895 2.479158 6.036211 5.227789 8.946527 8.29979 2.856421 3.018105 5.551158 6.036211 8.245894 9.054315 2.694737 3.341474 5.12 6.629053 7.383579 10.24 2.425263 3.557053 4.473263 7.168 6.682948 10.994527a140.395789 140.395789 0 0 1 10.509473 24.252631c1.347368 4.203789 2.694737 8.623158 3.772632 12.988632 1.131789 4.419368 2.048 8.838737 2.694737 13.258105 0.700632 4.419368 1.347368 9.108211 1.616842 13.473684 0.431158 4.742737 0.431158 9.162105 0.646737 13.850948V744.286316c0 4.688842-0.215579 9.162105-0.646737 13.797052a243.065263 243.065263 0 0 1-1.616842 13.473685 138.886737 138.886737 0 0 1-2.694737 13.258105 120.185263 120.185263 0 0 1-3.772632 12.934737 140.395789 140.395789 0 0 1-17.246315 35.354947 327.033263 327.033263 0 0 1-7.329685 10.24c-2.694737 3.233684-5.389474 6.305684-8.245894 9.054316-2.910316 3.018105-5.820632 5.497263-8.946527 8.299789a93.992421 93.992421 0 0 1-19.671579 12.934737c-3.395368 1.616842-6.952421 3.341474-10.509473 4.688842a79.818105 79.818105 0 0 1-10.778948 3.341474 75.991579 75.991579 0 0 1-10.940631 1.886316c-3.557053 0.538947-7.383579 0.862316-10.940632 0.862316H113.556211c-3.772632 0-7.383579-0.269474-11.156211-0.862316a79.818105 79.818105 0 0 1-21.665684-5.22779 74.266947 74.266947 0 0 1-10.563369-4.688842 93.992421 93.992421 0 0 1-19.671579-12.934737 88.926316 88.926316 0 0 1-8.946526-8.299789c-2.856421-3.018105-5.551158-6.036211-8.245895-9.108211a100.998737 100.998737 0 0 1-7.383579-10.24c-2.425263-3.557053-4.473263-7.114105-6.682947-10.994526a140.395789 140.395789 0 0 1-10.509474-24.252632 208.249263 208.249263 0 0 1-3.772631-12.934736 138.886737 138.886737 0 0 1-2.694737-13.258106 138.994526 138.994526 0 0 1-1.616842-13.473684L0 744.286316V140.126316c0-4.688842 0.215579-9.162105 0.646737-13.797053a243.065263 243.065263 0 0 1 1.616842-13.527579c0.646737-4.419368 1.562947-8.838737 2.694737-13.258105 1.077895-4.419368 2.155789-8.784842 3.772631-12.934737a140.395789 140.395789 0 0 1 10.509474-24.252631c2.209684-3.880421 4.257684-7.491368 6.682947-11.048422C28.402526 47.696842 30.827789 44.409263 33.306947 41.067789c2.694737-3.233684 5.389474-6.305684 8.245895-9.054315C44.463158 28.941474 47.427368 26.408421 50.499368 23.713684A93.992421 93.992421 0 0 1 70.170947 10.778947c3.395368-1.670737 6.952421-3.341474 10.509474-4.688842 3.610947-1.401263 7.168-2.479158 10.778947-3.341473A75.991579 75.991579 0 0 1 102.4 0.808421L113.556211 0h904.677052zM485.052632 254.544842a53.894737 53.894737 0 0 0-53.894737 53.894737v245.436632a53.894737 53.894737 0 0 0 80.626526 46.780631l214.770526-122.718316a53.894737 53.894737 0 0 0 0-93.561263L511.784421 261.658947A53.894737 53.894737 0 0 0 485.052632 254.544842z" p-id="10852" fill="#F2BB00"></path></svg>