<?xml version="1.0" encoding="utf-8"?>
<svg version="1.1" xmlns:xlink="http://www.w3.org/1999/xlink" width="45px" height="34px" xmlns="http://www.w3.org/2000/svg">
  <defs>
    <radialGradient cx="22.787745753006348" cy="17.5700197238626" r="34.98321614898512" gradientTransform="matrix(0.23003101546078286 0.6075439835807848 -0.9352100609126626 0.35409340853471727 33.97751667357038 -2.495966279789707 )" gradientUnits="userSpaceOnUse" id="RadialGradient6">
      <stop id="Stop7" stop-color="#ffc81a" offset="0" />
      <stop id="Stop8" stop-color="#ffe71a" offset="0.52" />
      <stop id="Stop9" stop-color="#d9a315" offset="1" />
    </radialGradient>
  </defs>
  <g transform="matrix(1 0 0 1 -438 -3710 )">
    <path d="M 44.18709677419355 4.693602693602695  C 44.72903225806452 5.22783389450056  45.00000000000001 5.876543209876543  45 6.63973063973064  C 45.00000000000001 7.402918069584732  44.72903225806452 8.051627384960716  44.18709677419355 8.585858585858585  L 23.167741935483875 29.306397306397304  L 19.219354838709677 33.1986531986532  C 18.67741935483871 33.73288439955107  18.01935483870968 34  17.24516129032258 34  C 16.470967741935485 34  15.812903225806453 33.73288439955107  15.270967741935484 33.1986531986532  L 11.32258064516129 29.306397306397304  L 0.8129032258064517 18.946127946127948  C 0.2709677419354841 18.411896745230077  0 17.763187429854092  0 17  C 0 16.236812570145904  0.2709677419354841 15.588103254769921  0.8129032258064517 15.053872053872055  L 4.761290322580645 11.161616161616163  C 5.303225806451613 10.627384960718294  5.961290322580647 10.360269360269356  6.735483870967743 10.36026936026936  C 7.509677419354841 10.360269360269356  8.167741935483871 10.627384960718294  8.709677419354838 11.161616161616163  L 17.24516129032258 19.604377104377104  L 36.29032258064516 0.8013468013468015  C 36.83225806451613 0.26711560044893257  37.49032258064517 0  38.26451612903226 0  C 39.038709677419355 0  39.696774193548386 0.26711560044893257  40.23870967741935 0.8013468013468015  L 44.18709677419355 4.693602693602695  Z " fill-rule="nonzero" fill="url(#RadialGradient6)" stroke="none" transform="matrix(1 0 0 1 438 3710 )" />
  </g>
</svg>