<?xml version="1.0" standalone="no"?><!DOCTYPE svg PUBLIC "-//W3C//DTD SVG 1.1//EN" "http://www.w3.org/Graphics/SVG/1.1/DTD/svg11.dtd"><svg t="1720452054916" class="icon" viewBox="0 0 1024 1024" version="1.1" xmlns="http://www.w3.org/2000/svg" p-id="1404" xmlns:xlink="http://www.w3.org/1999/xlink" width="200" height="200"><path d="M829.7 606V362.4c0-19.9-16.2-36.1-36.1-36.1H306.3c-19.9 0-36.1 16.2-36.1 36.1v487.3c0 19.9 16.2 36.1 36.1 36.1h219.5L829.7 606z" fill="#FCEE21" p-id="1405"></path><path d="M253.2 880.2c5.7 3.4 12.3 5.5 19.4 5.5h441.9c20.9 0 114.7-197.2 114.7-218.1v-85.3l-6.5-246.2C692.3 743 512.8 831.6 253.2 880.2z" fill="#F8B62D" p-id="1406"></path><path d="M822.8 578.1c-5.8 0-10.6-4.7-10.6-10.6V336.1c0-15.3-13.8-27.8-30.7-27.8H276c-16.9 0-30.7 12.5-30.7 27.8v31.5c0 5.8-4.7 10.6-10.6 10.6-5.8 0-10.6-4.7-10.6-10.6v-31.5c0-27 23.3-49 51.8-49h505.5c28.6 0 51.8 22 51.8 49v231.4c0.1 5.9-4.6 10.6-10.4 10.6zM234.7 463.4c-5.8 0-10.6-4.7-10.6-10.6v-41.6c0-5.8 4.7-10.6 10.6-10.6 5.8 0 10.6 4.7 10.6 10.6v41.6c0 5.8-4.7 10.6-10.6 10.6zM533 903.3H276c-28.6 0-51.8-22-51.8-49V496.4c0-5.8 4.7-10.6 10.6-10.6 5.8 0 10.6 4.7 10.6 10.6v357.9c0 15.3 13.8 27.8 30.7 27.8h257c5.8 0 10.6 4.7 10.6 10.6-0.1 5.9-4.9 10.6-10.7 10.6z" fill="#3E3A39" p-id="1407"></path><path d="M368 589.2h281.6" fill="#FCEE21" p-id="1408"></path><path d="M649.6 599.8H368c-5.8 0-10.6-4.7-10.6-10.6s4.7-10.6 10.6-10.6h281.6c5.8 0 10.6 4.7 10.6 10.6s-4.8 10.6-10.6 10.6z" fill="#3E3A39" p-id="1409"></path><path d="M368 704.2h224.7" fill="#FCEE21" p-id="1410"></path><path d="M592.7 714.8H368c-5.8 0-10.6-4.7-10.6-10.6s4.7-10.6 10.6-10.6h224.7c5.8 0 10.6 4.7 10.6 10.6s-4.8 10.6-10.6 10.6z" fill="#3E3A39" p-id="1411"></path><path d="M368 476.7h318.1" fill="#FCEE21" p-id="1412"></path><path d="M686.1 487.3H368c-5.8 0-10.6-4.7-10.6-10.6 0-5.8 4.7-10.6 10.6-10.6h318.1c5.8 0 10.6 4.7 10.6 10.6-0.1 5.8-4.8 10.6-10.6 10.6z" fill="#3E3A39" p-id="1413"></path><path d="M722 194.5c-15.8 0-28.7-12.9-28.7-28.7 0-15.8 12.9-28.7 28.7-28.7s28.7 12.9 28.7 28.7c-0.1 15.8-12.9 28.7-28.7 28.7z m0-43.3c-8 0-14.6 6.5-14.6 14.6 0 8 6.5 14.6 14.6 14.6 8 0 14.6-6.5 14.6-14.6-0.1-8.1-6.6-14.6-14.6-14.6z" fill="#47B7F8" p-id="1414"></path><path d="M257.1 240.2h-12.5v-12.5c0-3.4-2.7-6.1-6.1-6.1-3.4 0-6.1 2.7-6.1 6.1v12.5h-12.5c-3.4 0-6.1 2.7-6.1 6.1s2.7 6.1 6.1 6.1h12.5v12.5c0 3.4 2.7 6.1 6.1 6.1 3.4 0 6.1-2.7 6.1-6.1v-12.5h12.5c3.4 0 6.1-2.7 6.1-6.1s-2.8-6.1-6.1-6.1zM891 362.1h-12.5v-12.5c0-3.4-2.7-6.1-6.1-6.1-3.4 0-6.1 2.7-6.1 6.1v12.5h-12.5c-3.4 0-6.1 2.7-6.1 6.1s2.7 6.1 6.1 6.1h12.5v12.5c0 3.4 2.7 6.1 6.1 6.1 3.4 0 6.1-2.7 6.1-6.1v-12.5H891c3.4 0 6.1-2.7 6.1-6.1s-2.8-6.1-6.1-6.1z" fill="#F7E42F" p-id="1415"></path><path d="M113.8 527.4H99.2v-14.6c0-3.9-3.2-7.1-7.1-7.1-3.9 0-7.1 3.2-7.1 7.1v14.6H70.5c-3.9 0-7.1 3.2-7.1 7.1 0 3.9 3.2 7.1 7.1 7.1h14.6v14.6c0 3.9 3.2 7.1 7.1 7.1 3.9 0 7.1-3.2 7.1-7.1v-14.6h14.6c3.9 0 7.1-3.2 7.1-7.1-0.2-3.9-3.3-7.1-7.2-7.1z" fill="#F8B62D" p-id="1416"></path><path d="M352.6 176.4m-10.6 0a10.6 10.6 0 1 0 21.2 0 10.6 10.6 0 1 0-21.2 0Z" fill="#F8B62D" p-id="1417"></path><path d="M825.5 232.1m-14.1 0a14.1 14.1 0 1 0 28.2 0 14.1 14.1 0 1 0-28.2 0Z" fill="#F8B62D" p-id="1418"></path><path d="M163.8 446.5m-14.1 0a14.1 14.1 0 1 0 28.2 0 14.1 14.1 0 1 0-28.2 0Z" fill="#F7E42F" p-id="1419"></path><path d="M127.4 368.2c-15.8 0-28.7-12.9-28.7-28.7 0-15.8 12.9-28.7 28.7-28.7s28.7 12.9 28.7 28.7c0 15.8-12.9 28.7-28.7 28.7z m0-43.3c-8 0-14.6 6.5-14.6 14.6 0 8 6.5 14.6 14.6 14.6s14.6-6.5 14.6-14.6c0-8-6.5-14.6-14.6-14.6z" fill="#F8B62D" p-id="1420"></path><path d="M472.7 60.2c-1.5-1.5-4-1.5-5.5 0-0.7 0.7-1.1 1.7-1.1 2.8s0.4 2 1.1 2.8l12.5 12.5c0.7 0.7 1.7 1.1 2.8 1.1s2-0.4 2.8-1.1c1.5-1.5 1.5-4 0-5.5l-12.6-12.6zM505.8 93.3c-0.7-0.7-1.7-1.1-2.8-1.1-1 0-2 0.4-2.8 1.1-1.5 1.5-1.5 4 0 5.5l12.5 12.5c0.7 0.7 1.7 1.1 2.8 1.1 1 0 2-0.4 2.8-1.1 0.7-0.7 1.1-1.7 1.1-2.8 0-1-0.4-2-1.1-2.8l-12.5-12.4zM503 79.4c1 0 2-0.4 2.8-1.1l12.5-12.5c0.7-0.7 1.1-1.7 1.1-2.8 0-1-0.4-2-1.1-2.8-1.5-1.5-4-1.5-5.5 0l-12.5 12.5c-1.5 1.5-1.5 4 0 5.5 0.7 0.8 1.6 1.2 2.7 1.2zM479.7 93.3l-12.5 12.5c-0.7 0.7-1.1 1.7-1.1 2.8 0 1 0.4 2 1.1 2.8 0.7 0.7 1.7 1.1 2.8 1.1 1 0 2-0.4 2.8-1.1l12.5-12.5c1.5-1.5 1.5-4 0-5.5-1.6-1.6-4.1-1.6-5.6-0.1zM482.1 85.7c0-2.2-1.8-3.9-3.9-3.9h-17.7c-2.2 0-3.9 1.8-3.9 3.9 0 2.2 1.8 3.9 3.9 3.9h17.7c2.1 0 3.9-1.7 3.9-3.9zM525 81.8h-17.7c-2.2 0-3.9 1.8-3.9 3.9 0 2.2 1.8 3.9 3.9 3.9H525c2.2 0 3.9-1.8 3.9-3.9 0-2.1-1.8-3.9-3.9-3.9zM492.7 49.6c-2.2 0-3.9 1.8-3.9 3.9v17.7c0 2.2 1.8 3.9 3.9 3.9 2.2 0 3.9-1.8 3.9-3.9V53.5c0-2.2-1.7-3.9-3.9-3.9zM492.7 96.4c-2.2 0-3.9 1.8-3.9 3.9V118c0 2.2 1.8 3.9 3.9 3.9 2.2 0 3.9-1.8 3.9-3.9v-17.7c0-2.2-1.7-3.9-3.9-3.9z" fill="#FAEE00" p-id="1421"></path><path d="M902.2 472.7c-1.5-1.5-4-1.5-5.5 0-0.7 0.7-1.1 1.7-1.1 2.8 0 1 0.4 2 1.1 2.8l12.5 12.5c0.7 0.7 1.7 1.1 2.8 1.1 1 0 2-0.4 2.8-1.1 1.5-1.5 1.5-4 0-5.5l-12.6-12.6zM935.3 505.8c-0.7-0.7-1.7-1.1-2.8-1.1-1 0-2 0.4-2.8 1.1-1.5 1.5-1.5 4 0 5.5l12.5 12.5c0.7 0.7 1.7 1.1 2.8 1.1 1 0 2-0.4 2.8-1.1 0.7-0.7 1.1-1.7 1.1-2.8 0-1-0.4-2-1.1-2.8l-12.5-12.4zM932.6 491.9c1 0 2-0.4 2.8-1.1l12.5-12.5c0.7-0.7 1.1-1.7 1.1-2.8 0-1-0.4-2-1.1-2.8-1.5-1.5-4-1.5-5.5 0l-12.5 12.5c-1.5 1.5-1.5 4 0 5.5 0.6 0.8 1.6 1.2 2.7 1.2zM909.3 505.8l-12.5 12.5c-0.7 0.7-1.1 1.7-1.1 2.8s0.4 2 1.1 2.8c0.7 0.7 1.7 1.1 2.8 1.1 1 0 2-0.4 2.8-1.1l12.5-12.5c1.5-1.5 1.5-4 0-5.5-1.6-1.6-4.2-1.6-5.6-0.1zM911.7 498.3c0-2.2-1.8-3.9-3.9-3.9H890c-2.2 0-3.9 1.8-3.9 3.9s1.8 3.9 3.9 3.9h17.7c2.2 0 4-1.8 4-3.9zM954.5 494.4h-17.7c-2.2 0-3.9 1.8-3.9 3.9s1.8 3.9 3.9 3.9h17.7c2.2 0 3.9-1.8 3.9-3.9s-1.7-3.9-3.9-3.9zM922.3 462.1c-2.2 0-3.9 1.8-3.9 3.9v17.7c0 2.2 1.8 3.9 3.9 3.9 2.2 0 3.9-1.8 3.9-3.9V466c0-2.2-1.8-3.9-3.9-3.9zM922.3 508.9c-2.2 0-3.9 1.8-3.9 3.9v17.7c0 2.2 1.8 3.9 3.9 3.9 2.2 0 3.9-1.8 3.9-3.9v-17.7c0-2.2-1.8-3.9-3.9-3.9z" fill="#F8B62D" p-id="1422"></path><path d="M941.4 903.3h-25.2c-5.8 0-10.6-4.7-10.6-10.6 0-5.8 4.7-10.6 10.6-10.6h25.2c5.8 0 10.6 4.7 10.6 10.6 0 5.9-4.8 10.6-10.6 10.6zM162.2 903.3h-32.3c-5.8 0-10.6-4.7-10.6-10.6 0-5.8 4.7-10.6 10.6-10.6h32.3c5.8 0 10.6 4.7 10.6 10.6 0 5.9-4.8 10.6-10.6 10.6z" fill="#3E3A39" p-id="1423"></path><path d="M875.8 903.3H195.6c-5.8 0-10.6-4.7-10.6-10.6 0-5.8 4.7-10.6 10.6-10.6h680.2c5.8 0 10.6 4.7 10.6 10.6 0 5.9-4.8 10.6-10.6 10.6z" fill="#3E3A39" p-id="1424"></path><path d="M657.4 247.6h-53.2c0-0.9 0.1-1.9 0.1-2.8 0-39.4-32-71.4-71.4-71.4-39.4 0-71.4 32-71.4 71.4 0 1 0.1 1.9 0.1 2.8h-53.2c-15.7 0-28.5 12.7-28.5 28.5v45.8c0 15.7 12.7 28.5 28.5 28.5h248.9c15.7 0 28.5-12.7 28.5-28.5V276c0.1-15.7-12.6-28.4-28.4-28.4z" fill="#F8B62D" p-id="1425"></path><path d="M657.4 360.9H408.5c-21.5 0-39-17.5-39-39.1V276c0-21.5 17.5-39.1 39-39.1h42.8c3.9-41.6 39-74.2 81.6-74.2s77.7 32.6 81.6 74.2h42.8c21.5 0 39 17.5 39 39.1v45.8c0.2 21.6-17.3 39.1-38.9 39.1zM408.5 258.1c-9.9 0-17.9 8-17.9 17.9v45.8c0 9.9 8 17.9 17.9 17.9h248.9c9.9 0 17.9-8 17.9-17.9V276c0-9.9-8-17.9-17.9-17.9h-53.2c-2.9 0-5.6-1.2-7.6-3.3-2-2.1-3.1-4.9-2.9-7.8l0.1-2.4c0-33.5-27.3-60.8-60.8-60.8s-60.8 27.3-60.8 60.8l0.1 2.4c0.1 2.9-1 5.7-2.9 7.7s-4.7 3.2-7.6 3.2h-53.3z" fill="#3E3A39" p-id="1426"></path><path d="M308.2 414.5c-5.8 0-10.6-4.7-10.6-10.6v-24.7c0-5.8 4.7-10.6 10.6-10.6s10.6 4.7 10.6 10.6v24.7c0 5.8-4.7 10.6-10.6 10.6z" fill="#FFFFFF" p-id="1427"></path><path d="M308.2 592.9c-5.8 0-10.6-4.7-10.6-10.6V460.7c0-5.8 4.7-10.6 10.6-10.6s10.6 4.7 10.6 10.6v121.6c0 5.8-4.7 10.6-10.6 10.6z" fill="#FFFFFF" p-id="1428"></path><path d="M721 880.7l-72.4 27.1c-9.8 3.7-17.3-2.1-16.3-12.5l-15-51.3c0.4-4.5 24.8-35 28-39.2l118.8-155.1c7-9.1 17.7-12.7 23.8-8l65 49.8c6.2 4.7 5.5 15.9-1.5 25.1L732.6 871.7c-3.2 4.2-7.4 7.4-11.6 9z" fill="#FFFFFF" p-id="1429"></path><path d="M821.8 746.1l-101.8-78" fill="#FCEE21" p-id="1430"></path><path d="M821.8 756.7c-2.2 0-4.5-0.7-6.4-2.2l-101.8-78c-4.6-3.6-5.5-10.2-2-14.8 3.6-4.6 10.2-5.5 14.8-2l101.8 78c4.6 3.6 5.5 10.2 2 14.8-2 2.7-5.2 4.2-8.4 4.2z" fill="#3E3A39" p-id="1431"></path><path d="M631.4 913.8c-5.5 0-10.8-1.7-15.1-5-6.4-4.9-9.9-12.7-9.7-21.5l2.2-82.9c0.2-7.1 2.9-14.4 7.5-20.4l121.9-159.1c4.9-6.4 11.6-11 18.8-12.8 8.1-2.1 16.2-0.6 22.3 4l77.3 59.2c6.1 4.7 9.6 12.1 9.7 20.4 0.1 7.5-2.6 15.1-7.5 21.5L736.9 876.3c-4.6 6-10.9 10.5-17.8 12.5l-79.5 23.7c-2.7 0.9-5.5 1.3-8.2 1.3z m132.9-281.6c-0.8 0-1.5 0.1-1.9 0.3-2.6 0.7-5.3 2.6-7.3 5.2L633.2 796.8c-1.9 2.5-3.1 5.5-3.1 8.1l-2.2 82.9c-0.1 1.9 0.5 3.5 1.4 4.2 0.9 0.7 2.6 0.8 4.4 0.3l79.5-23.7c2.5-0.8 5.1-2.6 7-5.1L842 704.3c2-2.6 3.2-5.7 3.1-8.4 0-0.8-0.2-2.9-1.4-3.8l-77.3-59.2c-0.5-0.5-1.3-0.7-2.1-0.7z m-48.1 246.5z" fill="#3E3A39" p-id="1432"></path></svg>