<?xml version="1.0" standalone="no"?><!DOCTYPE svg PUBLIC "-//W3C//DTD SVG 1.1//EN" "http://www.w3.org/Graphics/SVG/1.1/DTD/svg11.dtd"><svg t="1720452095660" class="icon" viewBox="0 0 1024 1024" version="1.1" xmlns="http://www.w3.org/2000/svg" p-id="1593" xmlns:xlink="http://www.w3.org/1999/xlink" width="200" height="200"><path d="M796 803H269V338.5c0-37.7 30.2-68.2 67.4-68.2H641l40 67.8 115 12V803z" fill="#FCEE21" p-id="1594"></path><path d="M335.7 253.5h-40.8c-5.6 0-10.1-4.5-10.1-10.1s4.5-10.1 10.1-10.1h40.8c5.6 0 10.1 4.5 10.1 10.1s-4.5 10.1-10.1 10.1zM395.7 253.5h-26.4c-5.6 0-10.1-4.5-10.1-10.1s4.5-10.1 10.1-10.1h26.4c5.6 0 10.1 4.5 10.1 10.1s-4.5 10.1-10.1 10.1zM671 350.4c-5.6 0-10.1-4.5-10.1-10.1 0-47.9-38.9-86.8-86.8-86.8H429.3c-5.6 0-10.1-4.5-10.1-10.1s4.5-10.1 10.1-10.1H574c59 0 107 48 107 107 0 5.6-4.5 10.1-10 10.1z" fill="#3E3A39" p-id="1595"></path><path d="M289.6 354.2c-33.3 0-60.5-27.1-60.5-60.5s27.1-60.5 60.5-60.5c5.6 0 10.1 4.5 10.1 10.1s-4.5 10.1-10.1 10.1c-22.2 0-40.3 18.1-40.3 40.3s18.1 40.3 40.3 40.3c5.6 0 10.1 4.5 10.1 10.1s-4.5 10.1-10.1 10.1z" fill="#3E3A39" p-id="1596"></path><path d="M798 469.8c-5.6 0-10.1-4.5-10.1-10.1v-83.6c0-12.1-9.8-21.9-21.9-21.9H293.9c-5.6 0-10.1-4.5-10.1-10.1s4.5-10.1 10.1-10.1H766c23.2 0 42.1 18.9 42.1 42.1v83.6c0 5.6-4.5 10.1-10.1 10.1z" fill="#3E3A39" p-id="1597"></path><path d="M703 232.4c-15.1 0-27.3-12.3-27.3-27.3 0-15.1 12.3-27.3 27.3-27.3 15.1 0 27.3 12.3 27.3 27.3 0.1 15-12.2 27.3-27.3 27.3z m0-41.3c-7.7 0-13.9 6.2-13.9 13.9s6.2 13.9 13.9 13.9 13.9-6.2 13.9-13.9c0-7.6-6.2-13.9-13.9-13.9z" fill="#47B7F8" p-id="1598"></path><path d="M247.2 203.1h-12v-12c0-3.2-2.6-5.8-5.8-5.8-3.2 0-5.8 2.6-5.8 5.8v12h-12c-3.2 0-5.8 2.6-5.8 5.8s2.6 5.8 5.8 5.8h12v12c0 3.2 2.6 5.8 5.8 5.8 3.2 0 5.8-2.6 5.8-5.8v-12h12c3.2 0 5.8-2.6 5.8-5.8s-2.6-5.8-5.8-5.8zM851.4 319.3h-12v-12c0-3.2-2.6-5.8-5.8-5.8-3.2 0-5.8 2.6-5.8 5.8v12h-12c-3.2 0-5.8 2.6-5.8 5.8s2.6 5.8 5.8 5.8h12v12c0 3.2 2.6 5.8 5.8 5.8 3.2 0 5.8-2.6 5.8-5.8v-12h12c3.2 0 5.8-2.6 5.8-5.8s-2.6-5.8-5.8-5.8z" fill="#F7E42F" p-id="1599"></path><path d="M110.7 476.9H96.8V463a6.7 6.7 0 0 0-13.4 0v13.9h-14a6.7 6.7 0 0 0 0 13.4h13.9v13.9a6.7 6.7 0 0 0 13.4 0v-13.9h13.9c3.7 0 6.7-3 6.7-6.7 0.1-3.7-2.9-6.7-6.6-6.7z" fill="#F8B62D" p-id="1600"></path><path d="M338.3 142.3m-10.1 0a10.1 10.1 0 1 0 20.2 0 10.1 10.1 0 1 0-20.2 0Z" fill="#F8B62D" p-id="1601"></path><path d="M789 195.4m-13.4 0a13.4 13.4 0 1 0 26.8 0 13.4 13.4 0 1 0-26.8 0Z" fill="#F8B62D" p-id="1602"></path><path d="M520.2 162.2m-13.4 0a13.4 13.4 0 1 0 26.8 0 13.4 13.4 0 1 0-26.8 0Z" fill="#F7E42F" p-id="1603"></path><path d="M123.7 325.1c-15.1 0-27.3-12.3-27.3-27.3 0-15.1 12.3-27.3 27.3-27.3s27.3 12.3 27.3 27.3-12.2 27.3-27.3 27.3z m0-41.2c-7.7 0-13.9 6.2-13.9 13.9s6.2 13.9 13.9 13.9 13.9-6.2 13.9-13.9-6.3-13.9-13.9-13.9z" fill="#F8B62D" p-id="1604"></path><path d="M427.3 105.5c-1.5-1.4-3.8-1.4-5.3 0-0.7 0.7-1.1 1.6-1.1 2.6s0.4 1.9 1.1 2.6l11.9 11.9c0.7 0.7 1.6 1.1 2.6 1.1s1.9-0.4 2.6-1.1c1.4-1.5 1.4-3.8 0-5.3l-11.8-11.8zM458.8 137c-0.7-0.7-1.6-1.1-2.6-1.1s-1.9 0.4-2.6 1.1c-1.4 1.5-1.4 3.8 0 5.3l11.9 11.9c0.7 0.7 1.6 1.1 2.6 1.1s1.9-0.4 2.6-1.1c0.7-0.7 1.1-1.6 1.1-2.6s-0.4-1.9-1.1-2.6l-11.9-12zM456.2 123.8c1 0 1.9-0.4 2.6-1.1l11.9-11.9c0.7-0.7 1.1-1.6 1.1-2.6s-0.4-1.9-1.1-2.6c-1.5-1.5-3.8-1.5-5.3 0l-11.9 11.9c-1.4 1.5-1.4 3.8 0 5.3 0.7 0.6 1.7 1 2.7 1zM434 137l-12 11.9c-0.7 0.7-1.1 1.6-1.1 2.6s0.4 1.9 1.1 2.6c0.7 0.7 1.6 1.1 2.6 1.1s1.9-0.4 2.6-1.1l11.9-11.9c1.4-1.5 1.4-3.8 0-5.3-1.3-1.3-3.7-1.3-5.1 0.1zM436.3 129.8c0-2.1-1.7-3.7-3.7-3.7h-16.9c-2.1 0-3.7 1.7-3.7 3.7 0 2.1 1.7 3.7 3.7 3.7h16.9c2 0.1 3.7-1.6 3.7-3.7zM477.1 126.1h-16.9c-2.1 0-3.7 1.7-3.7 3.7 0 2.1 1.7 3.7 3.7 3.7h16.9c2.1 0 3.7-1.7 3.7-3.7s-1.6-3.7-3.7-3.7zM446.4 95.4c-2.1 0-3.7 1.7-3.7 3.7V116c0 2.1 1.7 3.7 3.7 3.7s3.7-1.7 3.7-3.7V99.1c0-2.1-1.7-3.7-3.7-3.7zM446.4 140c-2.1 0-3.7 1.7-3.7 3.7v16.9c0 2.1 1.7 3.7 3.7 3.7s3.7-1.7 3.7-3.7v-16.9c0-2.1-1.7-3.7-3.7-3.7z" fill="#FAEE00" p-id="1605"></path><path d="M904.1 450.1c-1.5-1.4-3.8-1.4-5.3 0-0.7 0.7-1.1 1.6-1.1 2.6s0.4 1.9 1.1 2.6l11.9 11.9c0.7 0.7 1.6 1.1 2.6 1.1s1.9-0.4 2.6-1.1c1.4-1.5 1.4-3.8 0-5.3l-11.8-11.8zM935.7 481.7c-0.7-0.7-1.6-1.1-2.6-1.1s-1.9 0.4-2.6 1.1c-1.4 1.5-1.4 3.8 0 5.3l11.9 11.9c0.7 0.7 1.6 1.1 2.6 1.1s1.9-0.4 2.6-1.1c0.7-0.7 1.1-1.6 1.1-2.6s-0.4-1.9-1.1-2.6l-11.9-12zM933.1 468.4c1 0 1.9-0.4 2.6-1.1l11.9-11.9c0.7-0.7 1.1-1.6 1.1-2.6s-0.4-1.9-1.1-2.6c-1.5-1.5-3.8-1.5-5.3 0l-11.9 11.9c-1.4 1.5-1.4 3.8 0 5.3 0.7 0.7 1.7 1 2.7 1zM910.8 481.7l-11.9 11.9c-0.7 0.7-1.1 1.6-1.1 2.6s0.4 1.9 1.1 2.6c0.7 0.7 1.6 1.1 2.6 1.1s1.9-0.4 2.6-1.1l11.9-11.9c1.4-1.5 1.4-3.8 0-5.3-1.3-1.3-3.8-1.3-5.2 0.1zM913.1 474.5c0-2.1-1.7-3.7-3.7-3.7h-16.9c-2.1 0-3.7 1.7-3.7 3.7s1.7 3.7 3.7 3.7h16.9c2.1 0 3.7-1.6 3.7-3.7zM954 470.8h-16.9c-2.1 0-3.7 1.7-3.7 3.7s1.7 3.7 3.7 3.7H954c2.1 0 3.7-1.7 3.7-3.7s-1.6-3.7-3.7-3.7zM923.3 440.1c-2.1 0-3.7 1.7-3.7 3.7v16.9c0 2.1 1.7 3.7 3.7 3.7 2.1 0 3.7-1.7 3.7-3.7v-16.9c0-2.1-1.7-3.7-3.7-3.7zM923.3 484.6c-2.1 0-3.7 1.7-3.7 3.7v16.9c0 2.1 1.7 3.7 3.7 3.7 2.1 0 3.7-1.7 3.7-3.7v-16.9c0-2-1.7-3.7-3.7-3.7z" fill="#F8B62D" p-id="1606"></path><path d="M912.5 818.2h-24c-5.6 0-10.1-4.5-10.1-10.1s4.5-10.1 10.1-10.1h24c5.6 0 10.1 4.5 10.1 10.1s-4.5 10.1-10.1 10.1zM169.8 818.2h-30.7c-5.6 0-10.1-4.5-10.1-10.1s4.5-10.1 10.1-10.1h30.7c5.6 0 10.1 4.5 10.1 10.1s-4.5 10.1-10.1 10.1z" fill="#3E3A39" p-id="1607"></path><path d="M849.9 818.2H201.7c-5.6 0-10.1-4.5-10.1-10.1s4.5-10.1 10.1-10.1H850c5.6 0 10.1 4.5 10.1 10.1s-4.6 10.1-10.2 10.1z" fill="#3E3A39" p-id="1608"></path><path d="M798 644.3l-109.2-32.1c-58.6 69.6-141.6 140.9-258.5 195.9H766c17.7 0 32-14.3 32-32V644.3z" fill="#F8B62D" p-id="1609"></path><path d="M766 818.2H271.2c-23.2 0-42.1-18.9-42.1-42.1V295.8c0-5.6 4.5-10.1 10.1-10.1s10.1 4.5 10.1 10.1v480.4c0 12.1 9.8 21.9 21.9 21.9H766c12.1 0 21.9-9.8 21.9-21.9V689c0-5.6 4.5-10.1 10.1-10.1s10.1 4.5 10.1 10.1v87.1c0 23.3-18.9 42.1-42.1 42.1z" fill="#3E3A39" p-id="1610"></path><path d="M803.1 644.3h-297c-14.9 0-26.9-12-26.9-26.9v-71c0-14.9 12-26.9 26.9-26.9h297c14.9 0 26.9 12 26.9 26.9v71c0 14.8-12 26.9-26.9 26.9z" fill="#FFFFFF" p-id="1611"></path><path d="M803.1 661.1h-317c-20.4 0-37-16.6-37-37v-95.9c0-20.4 16.6-37 37-37h317c20.4 0 37 16.6 37 37v95.9c0 20.4-16.6 37-37 37z m-317-149.7c-9.3 0-16.8 7.5-16.8 16.8v95.9c0 9.3 7.5 16.8 16.8 16.8h317c9.3 0 16.8-7.5 16.8-16.8v-95.9c0-9.3-7.5-16.8-16.8-16.8h-317z" fill="#3E3A39" p-id="1612"></path><path d="M633.4 554.6v43.1c0 2.1-1.7 3.8-3.8 3.8H512.9c-2.1 0-3.8-1.7-3.8-3.8v-43.1c0-2.1 1.7-3.8 3.8-3.8h116.7c2.1 0 3.8 1.7 3.8 3.8z" fill="#F8B62D" p-id="1613"></path><path d="M608.1 611.6h-73.6c-19.5 0-35.4-15.9-35.4-35.4s15.9-35.4 35.4-35.4h73.6c19.5 0 35.4 15.9 35.4 35.4s-15.9 35.4-35.4 35.4z m-73.6-50.7c-8.4 0-15.2 6.8-15.2 15.2 0 8.4 6.8 15.2 15.2 15.2h73.6c8.4 0 15.2-6.8 15.2-15.2 0-8.4-6.8-15.2-15.2-15.2h-73.6z" fill="#3E3A39" p-id="1614"></path></svg>