<?xml version="1.0" encoding="utf-8"?>
<svg version="1.1" xmlns:xlink="http://www.w3.org/1999/xlink" width="96px" height="46px" xmlns="http://www.w3.org/2000/svg">
  <defs>
    <linearGradient gradientUnits="userSpaceOnUse" x1="159" y1="7937" x2="159" y2="7973" id="LinearGradient65">
      <stop id="Stop66" stop-color="#70e842" offset="0" />
      <stop id="Stop67" stop-color="#4aa132" offset="1" />
    </linearGradient>
    <linearGradient gradientUnits="userSpaceOnUse" x1="159" y1="7937" x2="159" y2="7973" id="LinearGradient68">
      <stop id="Stop69" stop-color="#ffef8f" offset="0" />
      <stop id="Stop70" stop-color="#c2934a" offset="1" />
    </linearGradient>
    <filter x="111px" y="7932px" width="96px" height="46px" filterUnits="userSpaceOnUse" id="filter71">
      <feOffset dx="0" dy="0" in="SourceAlpha" result="shadowOffsetInner" />
      <feGaussianBlur stdDeviation="2.5" in="shadowOffsetInner" result="shadowGaussian" />
      <feComposite in2="shadowGaussian" operator="atop" in="SourceAlpha" result="shadowComposite" />
      <feColorMatrix type="matrix" values="0 0 0 0 0  0 0 0 0 0  0 0 0 0 0  0 0 0 0.9019607843137255 0  " in="shadowComposite" />
    </filter>
    <g id="widget72">
      <path d="M 118.5 7955  A 15.5 15.5 0 0 1 134 7939.5 L 184 7939.5  A 15.5 15.5 0 0 1 199.5 7955 A 15.5 15.5 0 0 1 184 7970.5 L 134 7970.5  A 15.5 15.5 0 0 1 118.5 7955 Z " fill-rule="nonzero" fill="url(#LinearGradient65)" stroke="none" />
      <path d="M 117.5 7955  A 16.5 16.5 0 0 1 134 7938.5 L 184 7938.5  A 16.5 16.5 0 0 1 200.5 7955 A 16.5 16.5 0 0 1 184 7971.5 L 134 7971.5  A 16.5 16.5 0 0 1 117.5 7955 Z " stroke-width="3" stroke="url(#LinearGradient68)" fill="none" />
    </g>
  </defs>
  <g transform="matrix(1 0 0 1 -111 -7932 )">
    <use xlink:href="#widget72" filter="url(#filter71)" />
    <use xlink:href="#widget72" />
  </g>
</svg>