<?xml version="1.0" encoding="utf-8"?>
<svg version="1.1" xmlns:xlink="http://www.w3.org/1999/xlink" width="25px" height="25px" xmlns="http://www.w3.org/2000/svg">
  <g transform="matrix(1 0 0 1 -1840 -16755 )">
    <path d="M 23.081752232142858 23.081752232142858  C 23.170107886904763 22.993396577380953  23.214285714285715 22.88876488095238  23 22.767857142857142  L 23 7.589285714285715  C 23.214285714285715 7.468377976190474  23.170107886904763 7.363746279761904  23.081752232142858 7.275390625  C 22.993396577380953 7.187034970238093  22.88876488095238 7.142857142857142  22.767857142857142 7.142857142857142  L 7.5892857142857135 7.142857142857142  C 7.468377976190476 7.142857142857142  7.363746279761905 7.187034970238093  7.275390625 7.275390625  C 7.187034970238096 7.363746279761904  7.142857142857142 7.468377976190474  7.142857142857142 7.589285714285715  L 7.142857142857142 22.767857142857142  C 7.142857142857142 22.88876488095238  7.187034970238096 22.993396577380953  7.275390625 23.081752232142858  C 7.363746279761905 23.170107886904763  7.468377976190476 23.214285714285715  7.5892857142857135 23  L 22.767857142857142 23  C 22.88876488095238 23.214285714285715  22.993396577380953 23.170107886904763  23.081752232142858 23.081752232142858  Z M 24.344308035714285 6.012834821428573  C 24.781436011904763 6.449962797619047  25 6.975446428571427  25 7.589285714285715  L 25 22.767857142857142  C 25 23.381696428571427  24.781436011904763 23.90718005952381  24.344308035714285 24.344308035714285  C 23.907180059523814 24.781436011904763  23.381696428571434 25  22.767857142857142 25  L 7.5892857142857135 25  C 6.975446428571429 25  6.449962797619048 24.781436011904763  6.012834821428571 24.344308035714285  C 5.575706845238095 23.90718005952381  5.357142857142857 23.381696428571427  5.357142857142857 22.767857142857142  L 5.357142857142857 7.589285714285715  C 5.357142857142857 6.975446428571427  5.575706845238095 6.449962797619047  6.012834821428571 6.012834821428573  C 6.449962797619048 5.575706845238093  6.975446428571429 5.357142857142858  7.5892857142857135 5.357142857142858  L 22.767857142857142 5.357142857142858  C 23.381696428571434 5.357142857142858  23.907180059523814 5.575706845238093  24.344308035714285 6.012834821428573  Z M 18.987165178571427 0.6556919642857151  C 19.424293154761905 1.092819940476189  19.642857142857142 1.6183035714285725  19.642857142857142 2.2321428571428577  L 19.642857142857142 4.464285714285715  L 17.857142857142858 4.464285714285715  L 17.857142857142858 2.2321428571428577  C 17.857142857142858 2.111235119047619  17.812965029761905 2.0066034226190466  17.724609375 1.9182477678571423  C 17.636253720238095 1.8298921130952355  17.531622023809526 1.785714285714285  17.410714285714285 2  L 2.232142857142857 2  C 2.111235119047619 1.785714285714285  2.0066034226190474 1.8298921130952355  1.9182477678571428 1.9182477678571423  C 1.8298921130952384 2.0066034226190466  1.7857142857142856 2.111235119047619  2 2.2321428571428577  L 2 17.410714285714285  C 1.7857142857142856 17.531622023809522  1.8298921130952384 17.636253720238095  1.9182477678571428 17.724609375  C 2.0066034226190474 17.812965029761905  2.111235119047619 17.857142857142858  2.232142857142857 17.857142857142858  L 4.464285714285714 17.857142857142858  L 4.464285714285714 19.642857142857142  L 2.232142857142857 19.642857142857142  C 1.6183035714285716 19.642857142857142  1.0928199404761907 19.424293154761905  0.6556919642857143 18.98716517857143  C 0.2185639880952381 18.55003720238095  0 18.02455357142857  0 17.410714285714285  L 0 2.2321428571428577  C 0 1.6183035714285725  0.2185639880952381 1.092819940476189  0.6556919642857143 0.6556919642857151  C 1.0928199404761907 0.21856398809523836  1.6183035714285716 0  2.232142857142857 0  L 17.410714285714285 0  C 18.024553571428573 0  18.550037202380953 0.21856398809523836  18.987165178571427 0.6556919642857151  Z " fill-rule="nonzero" fill="#ffffff" stroke="none" transform="matrix(1 0 0 1 1840 16755 )" />
  </g>
</svg>