<?xml version="1.0" standalone="no"?><!DOCTYPE svg PUBLIC "-//W3C//DTD SVG 1.1//EN" "http://www.w3.org/Graphics/SVG/1.1/DTD/svg11.dtd"><svg t="1719475087254" class="icon" viewBox="0 0 1024 1024" version="1.1" xmlns="http://www.w3.org/2000/svg" p-id="8475" xmlns:xlink="http://www.w3.org/1999/xlink" width="200" height="200"><path d="M727.872 44.544c-15.808-2.496-31.936-2.496-47.744 0-28.032 4.48-51.072 18.112-72.96 35.712-22.656 18.24-43.264 39.04-63.808 59.712l-11.328 11.392c-27.776 27.776-51.072 51.072-67.84 71.872-17.536 21.824-31.232 44.8-35.648 72.896-2.56 15.808-2.56 32 0 47.744 2.176 13.568 6.464 26.176 12.608 38.144a42.688 42.688 0 1 0 76.032-38.72 55.232 55.232 0 0 1-4.352-33.856c1.152-7.296 4.864-16.576 17.92-32.704 13.44-16.832 33.408-36.8 63.296-66.688 29.824-29.888 49.92-49.792 66.688-63.36 16.32-13.12 32.64-21.184 53.76-17.856 7.36 1.152 16.64 4.864 32.768 17.92 16.832 13.44 36.864 33.408 66.688 63.296 29.888 29.824 49.792 49.92 63.36 66.688 12.992 16.128 16.64 25.408 17.856 32.704 3.328 21.184-4.736 37.504-17.92 53.824-13.44 16.832-33.408 36.864-63.296 66.688-29.824 29.888-49.92 49.792-66.688 63.36-16.128 12.992-25.408 16.704-32.704 17.92a55.232 55.232 0 0 1-33.92-4.48 42.688 42.688 0 0 0-38.656 76.16c11.968 6.08 24.576 10.368 38.144 12.544 15.808 2.56 31.936 2.56 47.744 0 28.032-4.48 51.072-18.112 72.96-35.712 22.656-18.24 43.264-39.04 63.808-59.712l11.328-11.392c27.776-27.776 51.072-51.008 67.84-71.872 17.536-21.824 31.232-44.8 35.648-72.896 2.56-15.808 2.56-31.936 0-47.744-4.48-28.032-18.112-51.072-35.712-72.96-18.24-22.656-39.04-43.264-59.712-63.808l-11.392-11.328c-27.776-27.776-51.008-51.008-71.872-67.84-21.824-17.536-44.8-31.232-72.896-35.648z" fill="#ffffff" p-id="8476"></path><path d="M646.976 376.96c16.64 16.64 16.64 43.712 0 60.352L437.312 647.04a42.688 42.688 0 1 1-60.288-60.352L586.624 376.96c16.64-16.64 43.648-16.64 60.352 0z" fill="#ffffff" p-id="8477"></path><path d="M296.128 428.544c15.808-2.496 31.936-2.496 47.744 0 13.568 2.176 26.176 6.464 38.144 12.608a42.688 42.688 0 1 1-38.72 76.032 55.232 55.232 0 0 0-33.856-4.352c-7.296 1.152-16.576 4.864-32.704 17.92-16.832 13.44-36.864 33.408-66.688 63.296-29.888 29.824-49.792 49.92-63.36 66.688-13.12 16.32-21.184 32.64-17.92 53.76 1.216 7.36 4.928 16.64 17.92 32.832 13.568 16.768 33.472 36.8 63.36 66.624 29.824 29.888 49.92 49.792 66.688 63.36 16.32 13.12 32.64 21.248 53.76 17.92 7.36-1.216 16.64-4.928 32.768-17.92 16.832-13.568 36.864-33.472 66.688-63.36 29.888-29.824 49.792-49.92 63.36-66.624 12.992-16.192 16.64-25.472 17.856-32.768a55.232 55.232 0 0 0-4.352-33.92 42.688 42.688 0 0 1 76.032-38.656c6.144 12.032 10.432 24.576 12.608 38.144 2.56 15.808 2.56 32 0 47.744-4.48 28.032-18.112 51.072-35.712 72.96-16.704 20.8-40 44.032-67.84 71.808l-11.264 11.392c-20.48 20.672-41.152 41.472-63.872 59.712-21.824 17.6-44.8 31.296-72.896 35.712-15.808 2.56-32 2.56-47.744 0-28.032-4.48-51.072-18.112-72.96-35.712-20.8-16.704-44.032-40-71.808-67.84l-11.392-11.264c-20.672-20.48-41.472-41.152-59.712-63.872-17.6-21.824-31.296-44.8-35.712-72.896-2.56-15.808-2.56-31.936 0-47.744 4.48-28.032 18.112-51.072 35.712-72.96 16.704-20.736 40-44.032 67.84-71.808l11.264-11.392c20.48-20.672 41.152-41.472 63.872-59.712 21.824-17.6 44.8-31.296 72.896-35.712zM768 682.688c0-23.552 19.136-42.688 42.688-42.688H896a42.688 42.688 0 0 1 0 85.312h-85.312a42.688 42.688 0 0 1-42.688-42.624zM682.688 768c23.552 0 42.624 19.136 42.624 42.688V896A42.688 42.688 0 1 1 640 896v-85.312c0-23.552 19.136-42.688 42.688-42.688zM384 128a42.688 42.688 0 0 0-85.312 0v85.312a42.688 42.688 0 0 0 85.312 0V128zM128 298.688A42.688 42.688 0 0 0 128 384h85.312a42.688 42.688 0 0 0 0-85.312H128z" fill="#ffffff" p-id="8478"></path></svg>