<?xml version="1.0" encoding="utf-8"?>
<svg version="1.1" xmlns:xlink="http://www.w3.org/1999/xlink" width="46px" height="46px" xmlns="http://www.w3.org/2000/svg">
  <defs>
    <path d="M 0 0  L 1024 0  L 1024 1024  L 0 1024  Z " fill-rule="evenodd" fill="black" id="path6" />
    <clipPath id="clip7">
      <use xlink:href="#path6" />
    </clipPath>
    <filter x="-50.00%" y="-50.00%" width="200.00%" height="200.00%" filterUnits="objectBoundingBox" id="filter8">
      <feColorMatrix type="matrix" values="1 0 0 0 0  0 1 0 0 0  0 0 1 0 0  0 0 0 1 0  " in="SourceGraphic" />
    </filter>
    <mask fill="white" id="clip9">
      <path d="M 59 3404.5  C 46.5125 3404.5  36.5 3394.4875  36.5 3382  L 36.5 3382  C 36.5 3369.5125  46.5125 3359.5  59 3359.5  L 59 3359.5  C 71.4875 3359.5  81.5 3369.5125  81.5 3382  L 81.5 3382  C 81.5 3394.4875  71.4875 3404.5  59 3404.5  L 59 3404.5  " fill-rule="evenodd" />
    </mask>
  </defs>
  <g transform="matrix(1 0 0 1 -36 -3359 )">
    <g transform="matrix(0.044921875 0 0 0.044921875 36 3359 )" clip-path="url(#clip7)" filter="url(#filter8)">
      <path d="M860.16 0A163.84 163.84 0 0 1 1024 163.84v696.32A163.84 163.84 0 0 1 860.16 1024H163.84A163.84 163.84 0 0 1 0 860.16V163.84A163.84 163.84 0 0 1 163.84 0h696.32z m-152.996103 293.809231c-104.369231-108.990359-276.086154-112.062359-383.474871-6.564103l-6.826667 6.905436c-107.388718 112.797538-107.388718 291.288615 0 403.692308 60.442256 63.277949 116.132103 114.845538 167.095795 154.729025l10.134974 7.824411c10.60759 8.060718 25.206154 8.086974 35.813744 0.052513 53.720615-40.697436 112.771282-94.890667 177.230769-162.605949 107.388718-112.718769 107.388718-291.314872 0-404.033641z m-83.757948 121.567179a24.681026 24.681026 0 0 1 17.775589 6.905436 25.389949 25.389949 0 0 1 2.993231 33.13559l-1.995487 2.468102-122.381128 131.098257a24.654769 24.654769 0 0 1-30.798769 4.332308l-2.625641-1.811693-89.586872-70.94482a25.416205 25.416205 0 0 1-5.12-34.028308 24.681026 24.681026 0 0 1 33.161846-7.45682l2.599385 1.785435 71.758769 56.818872 106.811077-114.399179a24.733538 24.733538 0 0 1 17.381743-7.876923z" fill="#49B6F6" p-id="57074"></path>
    </g>
    <path d="M 59 3403  C 47.345 3403  38 3393.655  38 3382  L 38 3382  C 38 3370.345  47.345 3361  59 3361  L 59 3361  C 70.655 3361  80 3370.345  80 3382  L 80 3382  C 80 3393.655  70.655 3403  59 3403  L 59 3403  Z " stroke-width="4" stroke="#ffffff" fill="none" mask="url(#clip9)" />
  </g>
</svg>