<?xml version="1.0" encoding="utf-8"?>
<svg  version="1.1" width="40px" height="40px" viewBox="0 0 40 40" xmlns="http://www.w3.org/2000/svg" xmlns:xlink="http://www.w3.org/1999/xlink" size="160" class="css-1dk0tk5">
<defs><path d="M20.3665374,4 C26.2446419,4 31.0383245,8.62232659 31.2802897,14.4150945 L31.2898726,14.874787 L31.2898726,23.7730287 C31.2898726,25.7056034 32.7807039,27.2915233 34.679876,27.4531088 L35,27.4666667 L35,36 C28.3748262,36 22.9748893,30.7774519 22.7273125,24.2420249 L22.718444,23.7730287 L22.718444,14.874787 C22.718444,13.5816379 21.6654596,12.5333333 20.3665374,12.5333333 C19.1542101,12.5333333 18.1561218,13.4465231 18.0284315,14.6196598 L18.0146308,14.874787 L18.0146308,23.043212 C18.0146308,30.0364158 12.4496291,35.7356205 5.48791474,35.9910631 L5,36 L5,27.4666667 C7.34722097,27.4666667 9.26934223,25.6546877 9.43204612,23.3591171 L9.44320222,23.043212 L9.44320222,14.874787 C9.44320222,8.86880799 14.333746,4 20.3665374,4 Z" id="rollercoaster-path-1"></path><filter x="-50.0%" y="-46.9%" width="200.0%" height="193.8%" filterUnits="objectBoundingBox" id="rollercoaster-filter-2"><feOffset dx="0" dy="0" in="SourceAlpha" result="shadowOffsetOuter1"></feOffset><feGaussianBlur stdDeviation="5" in="shadowOffsetOuter1" result="shadowBlurOuter1"></feGaussianBlur><feColorMatrix values="0 0 0 0 1   0 0 0 0 0.365985577   0 0 0 0 0  0 0 0 1 0" type="matrix" in="shadowBlurOuter1"></feColorMatrix></filter><filter x="-36.7%" y="-34.4%" width="173.3%" height="168.8%" filterUnits="objectBoundingBox" id="rollercoaster-filter-3"><feMorphology radius="1" operator="erode" in="SourceAlpha" result="shadowSpreadInner1"></feMorphology><feGaussianBlur stdDeviation="0.5" in="shadowSpreadInner1" result="shadowBlurInner1"></feGaussianBlur><feOffset dx="0" dy="0" in="shadowBlurInner1" result="shadowOffsetInner1"></feOffset><feComposite in="shadowOffsetInner1" in2="SourceAlpha" operator="arithmetic" k2="-1" k3="1" result="shadowInnerInner1"></feComposite><feColorMatrix values="0 0 0 0 1   0 0 0 0 0.989929373   0 0 0 0 0.224561738  0 0 0 1 0" type="matrix" in="shadowInnerInner1"></feColorMatrix></filter></defs><g stroke="none" stroke-width="1" fill="none" fill-rule="evenodd"><g fill-rule="nonzero"><use fill="black" fill-opacity="1" filter="url(#rollercoaster-filter-2)" xlink:href="#rollercoaster-path-1"></use><use fill="#FFFFC1" xlink:href="#rollercoaster-path-1"></use><use fill="black" fill-opacity="1" filter="url(#rollercoaster-filter-3)" xlink:href="#rollercoaster-path-1"></use></g></g></svg>