<?xml version="1.0" standalone="no"?><!DOCTYPE svg PUBLIC "-//W3C//DTD SVG 1.1//EN" "http://www.w3.org/Graphics/SVG/1.1/DTD/svg11.dtd"><svg t="1719845751829" class="icon" viewBox="0 0 1024 1024" version="1.1" xmlns="http://www.w3.org/2000/svg" p-id="10561" xmlns:xlink="http://www.w3.org/1999/xlink" width="200" height="200"><path d="M365.684016 178.293401V13.201121s0.469605-8.609427-16.801426-12.522803A40.438217 40.438217 0 0 0 320.445392 7.25279L29.39459 213.774675S2.157494 227.654115 2.157494 255.047745a43.673274 43.673274 0 0 0 19.305987 37.8293l292.929223 201.095337a73.362752 73.362752 0 0 0 34.385529 3.443771c17.062318-3.600306 16.905783-16.07093 16.905783-16.07093V326.792968h284.945937s224.732127 30.159083 224.732127 113.487898c0 0-3.809019-261.987465-231.984917-261.987465z m291.416051 665.847847v165.248816s3.026344 10.07042 21.393121 12.470624a29.480764 29.480764 0 0 0 22.541045-6.522293l291.468229-206.67842s27.289274-13.931618 27.289274-41.481784a43.621096 43.621096 0 0 0-19.358166-37.829299l-293.190114-201.199695a39.864255 39.864255 0 0 0-28.750268-3.078522c-20.506089 5.217834-21.393121 15.653503-21.393121 15.653503v154.656612H370.693137s-224.888662-30.211261-224.888662-113.540077c0 0 3.756841 262.196178 232.141452 262.196179z" p-id="10562" fill="#FFE71A"></path></svg>