<?xml version="1.0" standalone="no"?><!DOCTYPE svg PUBLIC "-//W3C//DTD SVG 1.1//EN" "http://www.w3.org/Graphics/SVG/1.1/DTD/svg11.dtd"><svg t="1717696420889" class="icon" viewBox="0 0 3334 1024" version="1.1" xmlns="http://www.w3.org/2000/svg" p-id="2916" xmlns:xlink="http://www.w3.org/1999/xlink" width="651.171875" height="200"><path d="M2823.027451 903.529412H758.964706c22.086275-16.343843 199.218196-152.274824 206.165333-392.412863C972.599216 253.269333 777.075451 102.841725 758.964706 89.389176h2064.062745c216.084078 9.798275 388.397176 187.934118 391.529412 401.126902 3.212549 217.650196-170.907608 403.174902-391.529412 413.013334z" fill="#A4A4A5" p-id="2917"></path><path d="M1325.618196 647.730196l-156.611765 81.960157 29.876706-171.509961L1072.188235 439.03498l178.858667-29.836549 74.571294-156.611764 81.960157 156.611764 171.429647 29.836549L1452.313098 558.180392l29.796392 171.429647zM1946.041725 647.730196l-156.611764 81.960157 29.876706-171.509961-126.694902-119.145412 178.698039-29.836549 74.571294-156.611764 81.960157 156.611764 171.429647 29.836549L2072.736627 558.180392l29.796393 171.429647zM2572.488784 647.730196l-156.611764 81.960157 29.876705-171.509961-126.694901-119.145412 178.698039-29.836549 74.571294-156.611764 81.960157 156.611764 171.429647 29.836549L2699.183686 558.180392l29.796392 171.429647z" fill="#D3D3D3" p-id="2918"></path><path d="M459.796078 94.97098l1.325177 402.974118 346.794667 198.736314A401.568627 401.568627 0 0 0 459.796078 94.97098z" fill="#D3D3D3" p-id="2919"></path><path d="M459.796078 94.97098a401.568627 401.568627 0 0 0-346.112 605.284393L461.121255 497.945098z" fill="#D3D3D3" p-id="2920"></path><path d="M113.684078 700.255373a401.568627 401.568627 0 0 0 694.231844-3.413334L461.121255 497.945098z" fill="#D3D3D3" p-id="2921"></path><path d="M461.121255 89.389176a401.568627 401.568627 0 1 0 401.568627 401.568628 401.568627 401.568627 0 0 0-401.568627-401.568628z m128.501961 583.198118l-129.827138-67.945412-129.746823 67.945412 24.736627-142.07498-105.050353-98.866196 148.299295-24.696471L459.796078 277.082353l67.945412 129.746823 142.115137 24.696471-105.050352 98.866196z" fill="#A4A4A5" p-id="2922"></path></svg>