<?xml version="1.0" standalone="no"?><!DOCTYPE svg PUBLIC "-//W3C//DTD SVG 1.1//EN" "http://www.w3.org/Graphics/SVG/1.1/DTD/svg11.dtd"><svg t="1717696503755" class="icon" viewBox="0 0 2722 1024" version="1.1" xmlns="http://www.w3.org/2000/svg" p-id="5529" xmlns:xlink="http://www.w3.org/1999/xlink" width="531.640625" height="200"><path d="M2595.940765 653.170075c-2.691455-174.288095-150.163472-319.889224-335.118917-327.86512H871.932816c-62.362972-172.8439-209.244182-294.189115-380.348484-294.189114-227.821783 0.13129-412.514648 215.217899-412.514648 480.52311s184.692865 480.424643 412.514648 480.424643c9.091865 0 18.118084-0.393871 27.045837-1.050324H2260.821848c188.828515-8.205654 337.843195-159.813321 335.118917-337.843195z" fill="#24D197" p-id="5530"></path><path d="M635.347394 554.702225a142.121931 142.121931 0 1 0-284.145394 0 142.121931 142.121931 0 0 0 284.211039 0zM493.258286 391.475351a31.247131 31.247131 0 1 0-32.034874-31.247131 31.641003 31.641003 0 0 0 32.034874 31.247131zM386.913007 429.057247a31.247131 31.247131 0 1 0-44.605936-3.282261 31.641003 31.641003 0 0 0 44.605936 3.282261zM330.326816 524.210013a31.247131 31.247131 0 1 0-36.301814 26.258094 31.60818 31.60818 0 0 0 36.301814-26.258094zM599.570742 429.057247a31.247131 31.247131 0 1 0-4.463876-44.507468 31.641003 31.641003 0 0 0 4.463876 44.507468zM717.666517 513.37855a31.247131 31.247131 0 1 0-61.509584 10.831463 31.247131 31.247131 0 1 0 61.509584-10.864286zM679.428168 620.347458a31.60818 31.60818 0 0 0-43.063273 12.111546A31.247131 31.247131 0 1 0 679.428168 620.347458zM306.92429 620.347458a32.034874 32.034874 0 1 0 43.063273 12.111546A31.641003 31.641003 0 0 0 306.92429 620.347458zM549.811655 703.060453a31.247131 31.247131 0 1 0 40.76569 18.380665 31.641003 31.641003 0 0 0-40.76569-18.380665zM436.540804 703.060453a31.247131 31.247131 0 1 0 19.69357 40.306173 31.641003 31.641003 0 0 0-19.69357-40.306173z" fill="#187F58" p-id="5531"></path><path d="M1191.034297 686.288095a130.863773 130.863773 0 0 0-261.694724 0 130.863773 130.863773 0 0 0 261.694724 0zM910.171165 658.520162a28.752612 28.752612 0 1 0-33.446247 23.796397 29.146484 29.146484 0 0 0 33.446247-23.796397zM962.29348 571.83563a28.588499 28.588499 0 0 0 4.102827-40.535931 29.540355 29.540355 0 0 0-41.061093-3.052504 28.588499 28.588499 0 0 0-4.102827 40.568755 29.343419 29.343419 0 0 0 41.061093 3.01968zM1060.170524 537.634464a28.490031 28.490031 0 1 0-29.540355-28.490032 29.015193 29.015193 0 0 0 29.540355 28.490032zM1158.113212 571.83563a29.343419 29.343419 0 0 0 41.061094-3.01968 28.588499 28.588499 0 0 0-4.102827-40.371819 29.343419 29.343419 0 0 0-41.061094 3.019681 28.588499 28.588499 0 0 0 4.102827 40.371818zM1266.95301 648.640554a28.752612 28.752612 0 1 0-56.651837 9.846785 28.752612 28.752612 0 1 0 56.651837-9.846785zM1231.767165 746.058081a29.310597 29.310597 0 0 0-39.649722 11.028399 28.621322 28.621322 0 0 0 10.175012 39.38714 29.277774 29.277774 0 0 0 39.616898-11.028399 28.621322 28.621322 0 0 0-10.142188-39.38714zM888.606706 746.058081a28.686967 28.686967 0 0 0-10.175012 39.38714 29.343419 29.343419 0 0 0 39.682544 11.028399 28.686967 28.686967 0 0 0 10.175011-39.38714 29.343419 29.343419 0 0 0-39.682543-11.028399zM1112.292839 821.418809a28.752612 28.752612 0 0 0-17.888326 36.695686 29.277774 29.277774 0 0 0 37.581896 16.772357 28.71979 28.71979 0 0 0 17.855504-36.695686 29.244952 29.244952 0 0 0-37.549074-16.772357zM1008.113853 821.418809a29.212129 29.212129 0 0 0-37.549073 16.772357 28.686967 28.686967 0 0 0 17.855503 36.695686 29.244952 29.244952 0 0 0 37.549074-16.772357 28.71979 28.71979 0 0 0-17.855504-36.695686z" fill="#187F58" p-id="5532"></path><path d="M1700.900827 683.727931a130.863773 130.863773 0 0 0-261.694724 0 130.863773 130.863773 0 0 0 261.694724 0zM1420.037695 655.959997a28.752612 28.752612 0 1 0-33.446247 23.796398 28.883903 28.883903 0 0 0 33.446247-23.796398zM1472.16001 569.308289a28.654144 28.654144 0 0 0 4.070005-40.568754 29.343419 29.343419 0 0 0-41.061094-3.019681 28.588499 28.588499 0 0 0-4.102827 40.535932 29.540355 29.540355 0 0 0 41.093916 3.052503zM1570.037054 535.008654a28.490031 28.490031 0 1 0-29.540355-28.457208 28.949548 28.949548 0 0 0 29.540355 28.457208zM1667.94692 569.308289a29.343419 29.343419 0 0 0 41.061093-3.052503 28.555677 28.555677 0 0 0-4.070004-40.535932 29.540355 29.540355 0 0 0-41.093916 3.052503 28.588499 28.588499 0 0 0 4.102827 40.535932zM1776.721072 646.08039a29.113661 29.113661 0 0 0-33.479069-23.763575 28.818258 28.818258 0 0 0-23.172768 33.643182 28.752612 28.752612 0 1 0 56.651837-9.846785zM1741.600872 743.530739a29.277774 29.277774 0 0 0-39.649721 10.995577 28.621322 28.621322 0 0 0 10.142188 39.38714 29.277774 29.277774 0 0 0 39.649721-11.028399 28.588499 28.588499 0 0 0-10.142188-39.354318zM1398.473235 743.530739a28.621322 28.621322 0 0 0-10.175011 39.38714 29.310597 29.310597 0 0 0 39.682544 11.0284 28.654144 28.654144 0 0 0 10.142189-39.387141 29.277774 29.277774 0 0 0-39.649722-11.028399zM1622.126547 818.858645a28.71979 28.71979 0 0 0-17.855504 36.695685 29.179306 29.179306 0 0 0 37.549074 16.739535 28.686967 28.686967 0 0 0 17.855503-36.695686 29.244952 29.244952 0 0 0-37.549073-16.739534zM1517.947561 818.858645a29.179306 29.179306 0 0 0-37.516251 16.739534 28.686967 28.686967 0 0 0 17.855503 36.695686 29.146484 29.146484 0 0 0 37.516251-16.739535 28.752612 28.752612 0 0 0-17.855503-36.695685z" fill="#187F58" p-id="5533"></path><path d="M2208.535419 683.366882a130.863773 130.863773 0 0 0-261.694724 0 130.863773 130.863773 0 0 0 261.694724 0zM1927.672287 655.598949a28.752612 28.752612 0 1 0-33.446247 23.829219 29.146484 29.146484 0 0 0 33.446247-23.829219zM1979.794602 568.914418a28.588499 28.588499 0 0 0 4.102827-40.470287 29.540355 29.540355 0 0 0-41.093916-3.052503 28.621322 28.621322 0 0 0-4.070004 40.568754 29.343419 29.343419 0 0 0 41.061093 2.954036zM2077.671646 534.713251a28.490031 28.490031 0 1 0-29.540356-28.457209 28.982371 28.982371 0 0 0 29.540356 28.457209zM2175.614334 568.914418a29.343419 29.343419 0 0 0 41.061094-3.019681 28.588499 28.588499 0 0 0-4.102827-40.535932 29.310597 29.310597 0 0 0-41.061094 3.052503 28.555677 28.555677 0 0 0 4.102827 40.50311zM2284.454132 645.719341a28.752612 28.752612 0 1 0-56.651837 9.846785 28.752612 28.752612 0 1 0 56.651837-9.846785zM2249.268286 743.136868a29.310597 29.310597 0 0 0-39.649721 11.028399 28.621322 28.621322 0 0 0 10.175012 39.38714 29.277774 29.277774 0 0 0 39.616898-11.028399 28.621322 28.621322 0 0 0-10.142189-39.38714zM1906.107827 743.136868a28.686967 28.686967 0 0 0-10.175011 39.38714 29.343419 29.343419 0 0 0 39.682544 11.028399 28.686967 28.686967 0 0 0 10.175011-39.38714 29.343419 29.343419 0 0 0-39.682544-11.028399zM2129.793961 818.497596a28.752612 28.752612 0 0 0-17.888326 36.695686 29.244952 29.244952 0 0 0 37.581896 16.739534 28.752612 28.752612 0 0 0 17.855504-36.695685 29.277774 29.277774 0 0 0-37.549074-16.739535zM2025.614975 818.497596a29.212129 29.212129 0 0 0-37.549073 16.739535 28.686967 28.686967 0 0 0 17.855503 36.695685 29.212129 29.212129 0 0 0 37.549074-16.739534 28.752612 28.752612 0 0 0-17.855504-36.695686z" fill="#187F58" p-id="5534"></path><path d="M2201.970896 673.388807a130.863773 130.863773 0 0 0-261.694724 0 130.863773 130.863773 0 0 0 261.694724 0zM1921.107763 645.653696a28.752612 28.752612 0 1 0-33.446246 23.927687 28.883903 28.883903 0 0 0 33.446246-23.927687zM1973.230079 558.969165a28.621322 28.621322 0 0 0 4.102827-40.371819 29.343419 29.343419 0 0 0-41.093916-3.052503 28.555677 28.555677 0 0 0-4.070005 40.535931 29.343419 29.343419 0 0 0 41.061094 2.888391zM2071.107122 524.735175a28.490031 28.490031 0 1 0-29.540355-28.457208 28.982371 28.982371 0 0 0 29.540355 28.457208zM2169.016988 558.969165a29.540355 29.540355 0 0 0 41.093917-3.052504A28.588499 28.588499 0 0 0 2206.008077 515.315084a29.540355 29.540355 0 0 0-41.061093 3.052504 28.621322 28.621322 0 0 0 4.070004 40.601577zM2277.889608 635.774088a28.752612 28.752612 0 1 0-56.651836 9.846785 28.752612 28.752612 0 1 0 56.651836-9.846785zM2242.703763 733.191615a29.310597 29.310597 0 0 0-39.682544 11.028399 28.588499 28.588499 0 0 0 10.142189 39.38714 29.244952 29.244952 0 0 0 39.649721-10.995576 28.621322 28.621322 0 0 0-10.109366-39.419963zM1899.543304 733.191615a28.686967 28.686967 0 0 0-10.175011 39.38714 29.310597 29.310597 0 0 0 39.682544 10.995577 28.621322 28.621322 0 0 0 10.142188-39.387141 29.277774 29.277774 0 0 0-39.649721-10.995576zM2123.229438 808.552343a28.71979 28.71979 0 0 0-17.888326 36.695686 29.212129 29.212129 0 0 0 37.581896 16.739534 28.752612 28.752612 0 0 0 17.855503-36.695685 29.212129 29.212129 0 0 0-37.549073-16.739535zM2019.050452 808.552343a29.212129 29.212129 0 0 0-37.549074 16.739535 28.686967 28.686967 0 0 0 17.855504 36.695685 29.179306 29.179306 0 0 0 37.549074-16.739534 28.71979 28.71979 0 0 0-17.855504-36.695686z" fill="#ECF752" p-id="5535"></path><path d="M1694.467594 674.143727a130.863773 130.863773 0 0 0-261.694724 0 130.863773 130.863773 0 0 0 261.694724 0zM1413.604462 646.375793a28.752612 28.752612 0 1 0-33.446247 23.796398 29.146484 29.146484 0 0 0 33.446247-23.796398zM1465.726777 559.691262a28.588499 28.588499 0 0 0 4.070005-40.535932 29.540355 29.540355 0 0 0-41.061094-3.052503A28.654144 28.654144 0 0 0 1424.501571 556.671582a29.540355 29.540355 0 0 0 41.225206 3.01968zM1563.603821 525.490096a28.490031 28.490031 0 1 0-29.540355-28.457209 29.015193 29.015193 0 0 0 29.540355 28.457209zM1661.513687 559.691262a29.540355 29.540355 0 0 0 41.093916-3.01968 28.588499 28.588499 0 0 0-4.102827-40.535932 29.310597 29.310597 0 0 0-41.061094 3.052503 28.555677 28.555677 0 0 0 4.070005 40.503109zM1770.287839 636.496186a28.752612 28.752612 0 1 0-56.651837 9.846785 28.752612 28.752612 0 1 0 56.651837-9.846785zM1735.167639 733.913712a29.310597 29.310597 0 0 0-39.649721 11.15969 28.621322 28.621322 0 0 0 10.142188 39.38714 29.310597 29.310597 0 0 0 39.649722-11.028399 28.588499 28.588499 0 0 0-10.142189-39.518431zM1615.726136 809.274441a28.71979 28.71979 0 0 0-17.888326 36.695685 29.212129 29.212129 0 0 0 37.549074 16.739535 28.686967 28.686967 0 0 0 17.855503-36.695686 29.212129 29.212129 0 0 0-37.516251-16.739534zM1511.514328 809.274441a29.179306 29.179306 0 0 0-37.516251 16.739534 28.686967 28.686967 0 0 0 17.855503 36.695686 29.179306 29.179306 0 0 0 37.516251-16.739535 28.71979 28.71979 0 0 0-17.855503-36.695685zM1392.040003 733.913712a28.654144 28.654144 0 0 0-10.175012 39.387141 29.343419 29.343419 0 0 0 39.682544 11.159689 28.654144 28.654144 0 0 0 10.142189-39.38714 29.310597 29.310597 0 0 0-39.649721-11.15969z" fill="#ECF752" p-id="5536"></path><path d="M1182.828643 677.81986a130.863773 130.863773 0 0 0-261.694724 0 130.863773 130.863773 0 0 0 261.694724 0zM901.965511 650.051926a28.752612 28.752612 0 1 0-33.446247 23.796398 28.85108 28.85108 0 0 0 33.446247-23.796398zM954.087826 563.400218a28.654144 28.654144 0 0 0 4.102827-40.568754 29.540355 29.540355 0 0 0-41.093916-3.019681 28.555677 28.555677 0 0 0-4.070005 40.535932 29.540355 29.540355 0 0 0 41.061094 3.052503zM1051.997692 529.166229a28.490031 28.490031 0 1 0-29.540355-28.457209 28.982371 28.982371 0 0 0 29.540355 28.457209zM1149.874736 563.400218a29.540355 29.540355 0 0 0 41.093916-3.052503 28.588499 28.588499 0 0 0-4.102827-40.535932 29.343419 29.343419 0 0 0-41.061094 3.052503 28.621322 28.621322 0 0 0 4.070005 40.535932zM1258.648888 640.041028a28.752612 28.752612 0 1 0-56.651837 9.846785 28.752612 28.752612 0 1 0 56.651837-9.846785zM1223.56151 737.589846a29.343419 29.343419 0 0 0-39.682543 11.028399 28.621322 28.621322 0 0 0 10.142188 39.38714 29.277774 29.277774 0 0 0 39.649721-11.028399 28.621322 28.621322 0 0 0-10.109366-39.38714zM880.401051 737.589846a28.686967 28.686967 0 0 0-10.175011 39.38714 29.310597 29.310597 0 0 0 39.682544 11.028399 28.654144 28.654144 0 0 0 10.142188-39.38714 29.310597 29.310597 0 0 0-39.649721-11.028399zM1104.087185 812.950574a28.71979 28.71979 0 0 0-17.888326 36.695685 29.212129 29.212129 0 0 0 37.581896 16.739535 28.752612 28.752612 0 0 0 17.855504-36.695686 29.277774 29.277774 0 0 0-37.549074-16.739534zM999.908199 812.950574a29.212129 29.212129 0 0 0-37.549073 16.739534 28.686967 28.686967 0 0 0 17.855503 36.826976 29.179306 29.179306 0 0 0 37.549074-16.739534 28.752612 28.752612 0 0 0-17.855504-36.826976z" fill="#ECF752" p-id="5537"></path><path d="M627.108917 540.752612a142.089108 142.089108 0 0 0-284.178216 0 142.089108 142.089108 0 1 0 284.178216 0zM485.019809 377.460094a31.247131 31.247131 0 1 0-32.002051-31.247132 31.641003 31.641003 0 0 0 32.002051 31.247132zM378.707353 415.140458a31.247131 31.247131 0 1 0-44.605936-3.282262 31.673825 31.673825 0 0 0 44.605936 3.282262zM322.088339 510.293224a31.247131 31.247131 0 1 0-36.301814 26.09398 31.641003 31.641003 0 0 0 36.301814-26.09398zM591.332265 415.140458a31.247131 31.247131 0 1 0-4.431053-44.507469 31.673825 31.673825 0 0 0 4.431053 44.507469zM709.42804 499.428938a31.247131 31.247131 0 1 0-61.509584 10.864286 31.247131 31.247131 0 1 0 61.509584-10.864286zM671.320982 606.397846a31.641003 31.641003 0 0 0-43.063273 12.078723 31.214309 31.214309 0 1 0 43.03045-12.078723zM298.685813 606.397846a32.034874 32.034874 0 1 0 43.063273 12.078723A31.641003 31.641003 0 0 0 298.685813 606.397846zM541.573178 689.274954a31.214309 31.214309 0 1 0 40.798512 18.380665A31.60818 31.60818 0 0 0 541.573178 689.274954zM428.433618 689.274954a31.214309 31.214309 0 1 0 19.398166 40.27335 31.542535 31.542535 0 0 0-19.398166-40.27335z" fill="#ECF752" p-id="5538"></path></svg>