<?xml version="1.0" standalone="no"?><!DOCTYPE svg PUBLIC "-//W3C//DTD SVG 1.1//EN" "http://www.w3.org/Graphics/SVG/1.1/DTD/svg11.dtd"><svg t="1717696517187" class="icon" viewBox="0 0 2722 1024" version="1.1" xmlns="http://www.w3.org/2000/svg" p-id="6130" xmlns:xlink="http://www.w3.org/1999/xlink" width="531.640625" height="200"><path d="M2298.370921 996.954164h-1778.985832V354.484262h1778.985832c166.148086 12.866466 296.060004 149.999359 300.326944 312.70107 4.398231 168.905186-127.778447 316.278736-300.326944 329.768832z" fill="#FFFF00" p-id="6131"></path><path d="M521.584204 997.807552L30.295275 460.435669 224.834925 219.911533h591.824604l194.53965 240.688249z" fill="#FF6600" p-id="6132"></path><path d="M86.356305 462.339381l436.86903 478.094237L958.420412 462.339381l-158.205014-197.854735H246.169626z" fill="#FFFF00" p-id="6133"></path><path d="M493.849093 26.126803h58.489903v89.343163h-58.489903zM717.272646 132.143855l-40.568755-39.288672-58.45708 55.962562 39.485608 41.684723 59.540227-58.358613zM424.921598 147.636131L371.223796 92.855183l-42.964805 39.288672 57.275466 58.358613 39.387141-42.866337zM425.052888 308.959292H288.707738l-78.544522 103.325598h162.045259l52.844413-103.325598zM561.890378 311.224053H480.52311l-54.255785 103.325598h195.589974l-59.966921-103.325598zM209.867812 514.855568l273.412398 308.663888-111.367139-308.663888H209.867812zM420.556189 514.231938l101.224951 262.318354 105.754471-265.009809-206.979422 2.691455zM827.556638 412.28489l-75.820245-103.325598h-135.557407l59.901276 103.325598h151.476376zM544.198987 820.893647l276.399256-308.663889h-146.060644L544.198987 820.893647zM1162.051926 510.096288l-23.33688-23.796397-18.643247 17.067761 24.879544 25.33906 17.100583-18.610424zM1161.165716 556.638759h-98.96019l-56.980063 74.999679h117.603436l38.336817-74.999679zM1291.241746 631.638438l-43.52279-74.999679h-59.08071l-39.38714 74.999679h141.99064zM1005.225463 656.977499l198.445542 224.047182-80.842106-224.047182h-117.603436zM1146.658119 656.977499l70.99532 191.355856 79.26662-191.355856h-150.26194zM1319.731778 631.638438h109.955766l-55.043528-74.999679h-98.369383l43.457145 74.999679zM1229.042887 881.024681l200.644657-224.047182h-106.017052l-94.627605 224.047182zM1203.671005 457.350343h25.404705v38.796333h-25.404705zM1318.517341 503.367652l-17.592923-17.067761-25.404705 24.321559 17.166228 18.085262 25.8314-25.33906z" fill="#FF6600" p-id="6134"></path><path d="M1667.027886 556.638759h-98.960189l-56.980063 74.999679h117.603436l38.336816-74.999679zM1797.103917 631.638438l-43.52279-74.999679h-59.08071l-39.387141 74.999679h141.990641zM1511.087634 656.977499l198.445541 224.047182-80.842105-224.047182h-117.603436zM1652.52029 656.977499l70.99532 191.355856 79.26662-191.355856h-150.26194zM1935.549715 631.638438l-55.043529-74.999679h-98.402205l43.489967 74.999679h109.955767zM1734.905058 881.024681l200.644657-224.047182h-106.017053l-94.627604 224.047182zM1712.815437 457.350343h25.404705v38.796333h-25.404705zM1827.661773 503.367652l-17.625745-17.067761-25.371883 24.321559 17.133406 18.085262 25.864222-25.33906zM1667.881274 510.096288l-23.304058-23.796397-18.643246 17.067761 24.846721 25.33906 17.100583-18.610424zM2175.384576 554.045772h-98.96019l-57.012885 74.966857h117.636258l38.336817-74.966857zM2305.460606 629.012629l-43.555612-74.966857h-59.047888l-39.38714 74.966857h141.99064zM2019.411501 654.351689l198.478364 224.047183-80.842106-224.047183h-117.636258zM2160.876979 654.351689l70.995321 191.355856 79.266619-191.355856h-150.26194zM2333.950638 629.012629h109.955766l-55.043528-74.966857h-98.402205l43.489967 74.966857zM2243.261748 878.398872l200.644656-224.047183h-106.017052l-94.627604 224.047183zM2221.172126 454.724534h25.404706v38.796333h-25.404706zM2332.736201 500.774665l-17.625745-17.067761-25.371883 24.288737 17.133406 18.118084 25.864222-25.33906zM2176.237964 507.503301l-23.304058-23.796397-18.643246 17.067761 24.846721 25.33906 17.100583-18.610424z" fill="#706803" p-id="6135"></path></svg>