<?xml version="1.0" standalone="no"?><!DOCTYPE svg PUBLIC "-//W3C//DTD SVG 1.1//EN" "http://www.w3.org/Graphics/SVG/1.1/DTD/svg11.dtd"><svg t="1717696439377" class="icon" viewBox="0 0 3334 1024" version="1.1" xmlns="http://www.w3.org/2000/svg" p-id="3314" xmlns:xlink="http://www.w3.org/1999/xlink" width="651.171875" height="200"><path d="M2823.027451 929.350275H758.964706c22.086275-16.343843 199.218196-152.274824 206.165333-392.412863C972.599216 278.889412 777.075451 128.501961 758.964706 115.049412h2064.062745c216.084078 9.758118 388.397176 187.934118 391.529412 401.126902 3.212549 217.650196-170.907608 403.134745-391.529412 413.173961z" fill="#A4A4A5" p-id="3315"></path><path d="M1325.618196 673.350275l-156.611765 82.000313 29.796393-171.429647L1072.188235 464.695216l178.858667-29.836549 74.571294-156.611765 81.960157 156.611765 171.429647 29.836549-126.694902 119.225725 29.796392 171.429647zM1946.041725 673.350275l-156.611764 82.000313 29.796392-171.429647-126.614588-119.225725 178.698039-29.836549 74.571294-156.611765 81.960157 156.611765 171.429647 29.836549-126.694902 119.225725 29.796392 171.429647z" fill="#FFFFFF" p-id="3316"></path><path d="M2572.488784 673.350275l-156.611764 82.000313 29.796392-171.429647-126.614588-119.225725 178.698039-29.836549 74.571294-156.611765 81.960157 156.611765 171.429647 29.836549-126.694902 119.225725 29.796392 171.429647z" fill="#D3D3D3" p-id="3317"></path><path d="M461.121255 115.290353l1.325176 403.134745 346.834824 198.696157a401.568627 401.568627 0 0 0-348.16-601.830902zM461.121255 115.290353a401.568627 401.568627 0 0 0-346.112 605.244235l347.437176-202.10949z" fill="#FFFFFF" p-id="3318"></path><path d="M115.009255 720.534588a401.568627 401.568627 0 0 0 694.272-3.413333l-346.834824-198.696157z" fill="#D3D3D3" p-id="3319"></path><path d="M862.689882 516.618039a401.568627 401.568627 0 1 0-401.568627 401.568628 401.568627 401.568627 0 0 0 401.568627-401.568628zM459.796078 630.462745l-129.746823 67.784784 24.736627-142.07498-105.050353-98.866196 148.299295-24.696471 61.761254-129.746823 67.945412 129.746823 142.115137 24.696471-105.050352 98.866196 24.736627 142.07498z" fill="#A4A4A5" p-id="3320"></path></svg>