<?xml version="1.0" standalone="no"?><!DOCTYPE svg PUBLIC "-//W3C//DTD SVG 1.1//EN" "http://www.w3.org/Graphics/SVG/1.1/DTD/svg11.dtd"><svg t="1717696434650" class="icon" viewBox="0 0 3334 1024" version="1.1" xmlns="http://www.w3.org/2000/svg" p-id="3115" xmlns:xlink="http://www.w3.org/1999/xlink" width="651.171875" height="200"><path d="M2823.027451 917.263059H758.964706c22.086275-16.384 199.218196-152.31498 206.165333-392.45302C972.599216 266.802196 777.075451 116.454902 758.964706 102.922039h2064.062745c216.084078 9.798275 388.397176 187.934118 391.529412 401.126902 3.212549 217.690353-170.907608 403.174902-391.529412 413.214118z" fill="#A4A4A5" p-id="3116"></path><path d="M1325.618196 661.263059l-156.611765 81.960157 29.796393-171.389491L1072.188235 452.567843l178.858667-29.836549 74.571294-156.611765 81.960157 156.611765 171.429647 29.836549-126.694902 119.265882 29.796392 171.389491z" fill="#FFFFFF" p-id="3117"></path><path d="M1946.041725 661.263059l-156.611764 81.960157 29.796392-171.389491-126.614588-119.265882 178.698039-29.836549 74.571294-156.611765 81.960157 156.611765 171.429647 29.836549-126.694902 119.265882 29.796392 171.389491zM2572.488784 661.263059l-156.611764 81.960157 29.796392-171.389491-126.614588-119.265882 178.698039-29.836549 74.571294-156.611765 81.960157 156.611765 171.429647 29.836549-126.694902 119.265882 29.796392 171.389491zM459.796078 102.841725l1.325177 403.134746 346.794667 198.696156A401.568627 401.568627 0 0 0 459.796078 102.841725z" fill="#D3D3D3" p-id="3118"></path><path d="M459.796078 102.841725a401.568627 401.568627 0 0 0-346.112 605.284393L461.121255 505.976471z" fill="#FFFFFF" p-id="3119"></path><path d="M113.684078 708.126118a401.568627 401.568627 0 0 0 694.231844-3.453491L461.121255 505.976471z" fill="#D3D3D3" p-id="3120"></path><path d="M461.121255 102.922039a401.568627 401.568627 0 1 0 401.568627 401.568628 401.568627 401.568627 0 0 0-401.568627-401.568628z m128.501961 583.198118l-129.827138-67.945412-129.746823 67.945412 24.736627-142.074981-105.050353-98.866196 148.299295-24.69647L459.796078 290.735686l67.945412 129.746824 142.115137 24.69647-105.050352 98.866196z" fill="#A4A4A5" p-id="3121"></path></svg>