<?xml version="1.0" standalone="no"?><!DOCTYPE svg PUBLIC "-//W3C//DTD SVG 1.1//EN" "http://www.w3.org/Graphics/SVG/1.1/DTD/svg11.dtd"><svg t="1717696446083" class="icon" viewBox="0 0 3334 1024" version="1.1" xmlns="http://www.w3.org/2000/svg" p-id="3513" xmlns:xlink="http://www.w3.org/1999/xlink" width="651.171875" height="200"><path d="M2823.027451 937.943843H758.964706c22.086275-16.343843 199.218196-152.274824 206.165333-392.412863C972.599216 287.48298 777.075451 137.055373 758.964706 123.64298h2064.062745c216.084078 9.758118 388.397176 187.893961 391.529412 401.126902 3.212549 217.650196-170.907608 403.134745-391.529412 413.173961z" fill="#4DA5F7" p-id="3514"></path><path d="M1325.618196 681.943843l-156.611765 82.000314 29.796393-171.429647-126.614589-119.265883 178.858667-29.796392 74.571294-156.611764 81.960157 156.611764 171.429647 29.796392-126.694902 119.265883 29.796392 171.429647zM1946.041725 681.943843l-156.611764 82.000314 29.796392-171.429647-126.694902-119.265883 178.778353-29.796392 74.571294-156.611764 81.960157 156.611764 171.429647 29.796392-126.694902 119.265883 29.796392 171.429647zM2572.488784 681.943843l-156.611764 82.000314 29.796392-171.429647-126.694902-119.265883 178.778353-29.796392 74.571294-156.611764 81.960157 156.611764 171.429647 29.796392-126.694902 119.265883 29.796392 171.429647zM459.796078 123.883922l1.325177 403.134745 346.794667 198.696157A401.568627 401.568627 0 0 0 459.796078 123.883922z" fill="#FFFFFF" p-id="3515"></path><path d="M459.796078 123.883922a401.568627 401.568627 0 0 0-346.112 605.244235l347.437177-202.10949z" fill="#FFFFFF" p-id="3516"></path><path d="M113.684078 729.128157a401.568627 401.568627 0 0 0 694.231844-3.413333l-346.794667-198.696157z" fill="#FFFFFF" p-id="3517"></path><path d="M461.121255 123.64298a401.568627 401.568627 0 1 0 401.568627 401.568628 401.568627 401.568627 0 0 0-401.568627-401.568628z m128.501961 583.198118L459.796078 638.895686 330.049255 706.760784l24.736627-142.115137L249.735529 465.819608l148.299295-24.736628 61.761254-129.706666 67.945412 129.706666 142.115137 24.736628-105.050352 98.826039z" fill="#4DA5F7" p-id="3518"></path></svg>