<?xml version="1.0" standalone="no"?><!DOCTYPE svg PUBLIC "-//W3C//DTD SVG 1.1//EN" "http://www.w3.org/Graphics/SVG/1.1/DTD/svg11.dtd"><svg t="1718859074251" class="icon" viewBox="0 0 1024 1024" version="1.1" xmlns="http://www.w3.org/2000/svg" p-id="1231" xmlns:xlink="http://www.w3.org/1999/xlink" width="200" height="200"><path d="M218.04025 620.817959l293.964707-293.964707 293.964707 293.973192-67.045625 75.518073-226.919082-226.919082-226.919083 226.919082z" fill="#F0F0FF" p-id="1232"></path><path d="M233.042043 635.815509l293.964706-293.964707a21.204457 21.204457 0 0 1-29.999342 0l293.968949 293.973192a21.208699 21.208699 0 0 1-0.865488-29.078701l-67.045624 75.522316a21.200214 21.200214 0 0 1 30.869073-0.916399l-226.919082-226.919083a21.212942 21.212942 0 0 0-29.999343 0L270.09681 681.35121a21.187486 21.187486 0 0 1 30.86483 0.916399L233.903288 606.732565a21.212942 21.212942 0 0 1-0.861245 29.082944z m67.045624 75.526558l226.91484-226.910597a21.217185 21.217185 0 0 1-29.999343 0l226.923325 226.910597a21.212942 21.212942 0 0 0 30.869074-0.916399l67.045624-75.518073a21.212942 21.212942 0 0 0-0.865488-29.078701l-293.96895-293.977435a21.204457 21.204457 0 0 0-29.999342 0l-293.964707 293.96895a21.212942 21.212942 0 0 0-0.865488 29.0787l67.045624 75.526559a21.200214 21.200214 0 0 0 30.864831 0.916399z" fill="#6E6E96" p-id="1233"></path><path d="M218.04025 315.177649L512.004957 21.212942l293.964707 293.964707-67.062595 75.526558-226.902112-226.923325L285.085874 390.699965z" fill="#F0F0FF" p-id="1234"></path><path d="M233.042043 330.179441L527.002507 36.214734a21.212942 21.212942 0 0 1-29.999343 0l293.96895 293.964707a21.208699 21.208699 0 0 1-0.865488-29.082943l-67.062595 75.530801a21.22567 21.22567 0 0 1 30.873316-0.912157L527.006749 148.783332a21.217185 21.217185 0 0 0-30.003585-0.004242L270.088325 375.693929a21.212942 21.212942 0 0 1 30.86483 0.920642L233.903288 301.092255a21.217185 21.217185 0 0 1-0.861245 29.087186z m67.045624 75.518073L527.002507 178.782675a21.204457 21.204457 0 0 1-29.999343 0l226.89787 226.914839a21.22567 21.22567 0 0 0 30.873316-0.916399l67.066837-75.526558a21.208699 21.208699 0 0 0-0.865488-29.082943L527.002507 6.211149a21.212942 21.212942 0 0 0-29.999343 0L203.038458 300.175856a21.212942 21.212942 0 0 0-0.865488 29.082944l67.045624 75.522315a21.22567 21.22567 0 0 0 30.869073 0.916399z" fill="#6E6E96" p-id="1235"></path><path d="M218.04025 927.234662l293.964707-293.956221 293.964707 293.968949-67.045625 75.518073-226.919082-226.919082-226.919083 226.919082z" fill="#F0F0FF" p-id="1236"></path><path d="M233.042043 942.236455l293.964706-293.960464a21.212942 21.212942 0 0 1-29.999342 0l293.968949 293.968949a21.208699 21.208699 0 0 1-0.865488-29.078701l-67.045624 75.522316a21.22567 21.22567 0 0 1 30.869073-0.916399l-226.919082-226.919083a21.208699 21.208699 0 0 0-29.999343 0L270.09681 987.772156a21.200214 21.200214 0 0 1 30.86483 0.916399L233.903288 913.153511a21.212942 21.212942 0 0 1-0.861245 29.082944z m67.045624 75.530801l226.91484-226.919083a21.208699 21.208699 0 0 1-29.999343 0l226.923325 226.919083a21.200214 21.200214 0 0 0 30.869074-0.920642l67.045624-75.522316a21.212942 21.212942 0 0 0-0.865488-29.078701l-293.964707-293.968949a21.212942 21.212942 0 0 0-29.999342 0L203.038458 912.241355a21.212942 21.212942 0 0 0-0.865488 29.078701l67.045624 75.530801a21.229912 21.229912 0 0 0 15.235135 7.127548 21.246883 21.246883 0 0 0 15.633938-6.211149z" fill="#6E6E96" p-id="1237"></path><path d="M245.171603 315.674031L510.821275 50.02436l29.999342 29.999342-265.649672 265.649672zM245.090994 621.216762l265.636944-265.636944 29.9951 29.999342-265.632702 265.636944zM243.682454 926.046737l265.556335-265.552092 29.9951 29.9951-265.556335 265.552092z" fill="#FFFFFF" p-id="1238"></path></svg>