<?xml version="1.0" encoding="utf-8"?>
<svg version="1.1" xmlns:xlink="http://www.w3.org/1999/xlink" width="39px" height="39px" xmlns="http://www.w3.org/2000/svg">
  <g transform="matrix(1 0 0 1 -1516 -2387 )">
    <path d="M 38.609218436873746 17.925465838509314  C 38.86973947895792 18.19461697722567  39 18.504140786749478  39 18.854037267080745  C 39 19.20393374741201  38.86973947895792 19.513457556935816  38.609218436873746 19.782608695652176  L 20.39879759519038 38.59627329192546  C 20.138276553106213 38.86542443064182  19.83867735470942 39  19.5 39  C 19.161322645290582 39  18.86172344689379 38.86542443064182  18.60120240480962 38.59627329192546  L 0.3907815631262525 19.782608695652176  C 0.13026052104208455 19.513457556935816  0 19.20393374741201  0 18.854037267080745  C 0 18.504140786749478  0.13026052104208455 18.19461697722567  0.3907815631262525 17.925465838509314  L 2.344689378757515 15.906832298136644  C 2.605210420841684 15.637681159420286  2.904809619238477 15.50310559006211  3.243486973947896 15.50310559006211  C 3.5821643286573153 15.50310559006211  3.8817635270541087 15.637681159420286  4.142284569138276 15.906832298136644  L 19.5 31.773291925465838  L 34.857715430861724 15.906832298136644  C 35.118236472945895 15.637681159420286  35.41783567134269 15.50310559006211  35.756513026052104 15.50310559006211  C 36.09519038076153 15.50310559006211  36.39478957915832 15.637681159420286  36.655310621242485 15.906832298136644  L 38.609218436873746 17.925465838509314  Z M 38.609218436873746 2.4223602484472053  C 38.86973947895792 2.691511387163555  39 3.0010351966873676  39 3.350931677018635  C 39 3.7008281573498887  38.86973947895792 4.010351966873701  38.609218436873746 4.27950310559006  L 20.39879759519038 23.09316770186335  C 20.138276553106213 23.36231884057971  19.83867735470942 23.49689440993789  19.5 23.49689440993789  C 19.161322645290582 23.49689440993789  18.86172344689379 23.36231884057971  18.60120240480962 23.09316770186335  L 0.3907815631262525 4.27950310559006  C 0.13026052104208455 4.010351966873701  0 3.7008281573498887  0 3.350931677018635  C 0 3.0010351966873676  0.13026052104208455 2.691511387163555  0.3907815631262525 2.4223602484472053  L 2.344689378757515 0.4037267080745335  C 2.605210420841684 0.13457556935817494  2.904809619238477 0  3.243486973947896 0  C 3.5821643286573153 0  3.8817635270541087 0.13457556935817494  4.142284569138276 0.4037267080745335  L 19.5 16.27018633540373  L 34.857715430861724 0.4037267080745335  C 35.118236472945895 0.13457556935817494  35.41783567134269 0  35.756513026052104 0  C 36.09519038076153 0  36.39478957915832 0.13457556935817494  36.655310621242485 0.4037267080745335  L 38.609218436873746 2.4223602484472053  Z " fill-rule="nonzero" fill="#ff0000" stroke="none" transform="matrix(1 0 0 1 1516 2387 )" />
  </g>
</svg>