<?xml version="1.0" standalone="no"?><!DOCTYPE svg PUBLIC "-//W3C//DTD SVG 1.1//EN" "http://www.w3.org/Graphics/SVG/1.1/DTD/svg11.dtd"><svg t="1721809175135" class="icon" viewBox="0 0 1024 1024" version="1.1" xmlns="http://www.w3.org/2000/svg" p-id="8519" xmlns:xlink="http://www.w3.org/1999/xlink" width="200" height="200"><path d="M768 170.666667a85.333333 85.333333 0 0 1-85.333333 85.333333H341.333333a85.333333 85.333333 0 0 1-85.333333-85.333333H128v768h768V170.666667h-128z m0-85.333334h128a85.333333 85.333333 0 0 1 85.333333 85.333334v768a85.333333 85.333333 0 0 1-85.333333 85.333333H128a85.333333 85.333333 0 0 1-85.333333-85.333333V170.666667a85.333333 85.333333 0 0 1 85.333333-85.333334h128a85.333333 85.333333 0 0 1 85.333333-85.333333h341.333334a85.333333 85.333333 0 0 1 85.333333 85.333333zM341.333333 85.333333v85.333334h341.333334V85.333333H341.333333z m170.666667 451.669334l120.661333-120.704a42.666667 42.666667 0 0 1 60.373334 60.373333L572.330667 597.333333l120.704 120.661334a42.666667 42.666667 0 0 1-60.373334 60.373333L512 657.664l-120.661333 120.704a42.666667 42.666667 0 1 1-60.373334-60.373333L451.669333 597.333333l-120.704-120.661333a42.666667 42.666667 0 0 1 60.373334-60.373333L512 537.002667z" fill="#B0B5C5" p-id="8520"></path></svg>