<?xml version="1.0" encoding="utf-8"?>
<svg version="1.1" xmlns:xlink="http://www.w3.org/1999/xlink" width="20px" height="16px" xmlns="http://www.w3.org/2000/svg">
  <g transform="matrix(1 0 0 1 -106 -1699 )">
    <path d="M 19.799599198396795 14.244306418219463  C 19.933199732798933 14.354727398205657  20 14.481711525189784  20 14.625258799171842  C 20 14.7688060731539  19.933199732798933 14.895790200138025  19.799599198396795 15.006211180124224  L 18.79759519038076 15.834368530020704  C 18.663994655978627 15.944789510006903  18.510354041416168 16  18.336673346693388 16  C 18.162992651970608 16  18.00935203740815 15.944789510006903  17.87575150300601 15.834368530020704  L 10 9.32505175983437  L 2.124248496993988 15.834368530020704  C 1.9906479625918505 15.944789510006903  1.8370073480293925 16  1.6633266533066133 16  C 1.4896459585838344 16  1.3360053440213764 15.944789510006903  1.2024048096192383 15.834368530020704  L 0.2004008016032064 15.006211180124224  C 0.06680026720106899 14.895790200138025  0 14.7688060731539  0 14.625258799171842  C 0 14.481711525189784  0.06680026720106899 14.354727398205657  0.2004008016032064 14.244306418219463  L 9.539078156312625 6.525879917184264  C 9.672678690714765 6.415458937198066  9.826319305277222 6.3602484472049685  10 6.3602484472049685  C 10.17368069472278 6.3602484472049685  10.327321309285239 6.415458937198066  10.460921843687373 6.525879917184264  L 19.799599198396795 14.244306418219463  Z M 19.799599198396795 7.884057971014492  C 19.933199732798933 7.994478951000689  20 8.121463077984817  20 8.265010351966874  C 20 8.40855762594893  19.933199732798933 8.535541752933057  19.799599198396795 8.645962732919255  L 18.79759519038076 9.474120082815734  C 18.663994655978627 9.584541062801932  18.510354041416168 9.639751552795031  18.336673346693388 9.639751552795031  C 18.162992651970608 9.639751552795031  18.00935203740815 9.584541062801932  17.87575150300601 9.474120082815734  L 10 2.9648033126293996  L 2.124248496993988 9.474120082815734  C 1.9906479625918505 9.584541062801932  1.8370073480293925 9.639751552795031  1.6633266533066133 9.639751552795031  C 1.4896459585838344 9.639751552795031  1.3360053440213764 9.584541062801932  1.2024048096192383 9.474120082815734  L 0.2004008016032064 8.645962732919255  C 0.06680026720106899 8.535541752933057  0 8.40855762594893  0 8.265010351966874  C 0 8.121463077984817  0.06680026720106899 7.994478951000689  0.2004008016032064 7.884057971014492  L 9.539078156312625 0.1656314699792958  C 9.672678690714765 0.05521048999309741  9.826319305277222 0  10 0  C 10.17368069472278 0  10.327321309285239 0.05521048999309741  10.460921843687373 0.1656314699792958  L 19.799599198396795 7.884057971014492  Z " fill-rule="nonzero" fill="#d5d5d5" stroke="none" transform="matrix(1 0 0 1 106 1699 )" />
  </g>
</svg>