<?xml version="1.0" encoding="utf-8"?>
<svg version="1.1" xmlns:xlink="http://www.w3.org/1999/xlink" width="38px" height="36px" xmlns="http://www.w3.org/2000/svg">
  <g transform="matrix(1 0 0 1 -1517 -2182 )">
    <path d="M 37.61923847695391 32.04968944099379  C 37.87307949231797 32.29813664596273  38 32.58385093167701  38 32.90683229813664  C 38 33.22981366459628  37.87307949231797 33.515527950310556  37.61923847695391 33.7639751552795  L 35.71543086172345 35.62732919254658  C 35.46158984635939 35.87577639751553  35.169672678690716 36  34.83967935871743 36  C 34.50968603874416 36  34.217768871075485 35.87577639751553  33.963927855711425 35.62732919254658  L 19 20.98136645962733  L 4.0360721442885765 35.62732919254658  C 3.782231128924516 35.87577639751553  3.4903139612558456 36  3.1603206412825653 36  C 2.8303273213092854 36  2.538410153640615 35.87577639751553  2.284569138276553 35.62732919254658  L 0.3807615230460922 33.7639751552795  C 0.1269205076820311 33.515527950310556  0 33.22981366459628  0 32.90683229813664  C 0 32.58385093167701  0.1269205076820311 32.29813664596273  0.3807615230460922 32.04968944099379  L 18.12424849699399 14.683229813664594  C 18.378089512358052 14.434782608695649  18.670006680026724 14.310559006211179  19 14.310559006211179  C 19.329993319973283 14.310559006211179  19.62191048764195 14.434782608695649  19.87575150300601 14.683229813664594  L 37.61923847695391 32.04968944099379  Z M 37.61923847695391 17.73913043478261  C 37.87307949231797 17.98757763975155  38 18.273291925465838  38 18.596273291925467  C 38 18.919254658385093  37.87307949231797 19.204968944099377  37.61923847695391 19.453416149068325  L 35.71543086172345 21.3167701863354  C 35.46158984635939 21.565217391304348  35.169672678690716 21.68944099378882  34.83967935871743 21.68944099378882  C 34.50968603874416 21.68944099378882  34.217768871075485 21.565217391304348  33.963927855711425 21.3167701863354  L 19 6.670807453416149  L 4.0360721442885765 21.3167701863354  C 3.782231128924516 21.565217391304348  3.4903139612558456 21.68944099378882  3.1603206412825653 21.68944099378882  C 2.8303273213092854 21.68944099378882  2.538410153640615 21.565217391304348  2.284569138276553 21.3167701863354  L 0.3807615230460922 19.453416149068325  C 0.1269205076820311 19.204968944099377  0 18.919254658385093  0 18.596273291925467  C 0 18.273291925465838  0.1269205076820311 17.98757763975155  0.3807615230460922 17.73913043478261  L 18.12424849699399 0.3726708074534155  C 18.378089512358052 0.12422360248446918  18.670006680026724 0  19 0  C 19.329993319973283 0  19.62191048764195 0.12422360248446918  19.87575150300601 0.3726708074534155  L 37.61923847695391 17.73913043478261  Z " fill-rule="nonzero" fill="#7aff00" stroke="none" transform="matrix(1 0 0 1 1517 2182 )" />
  </g>
</svg>