<?xml version="1.0" standalone="no"?><!DOCTYPE svg PUBLIC "-//W3C//DTD SVG 1.1//EN" "http://www.w3.org/Graphics/SVG/1.1/DTD/svg11.dtd"><svg t="1718097017420" class="icon" viewBox="0 0 1024 1024" version="1.1" xmlns="http://www.w3.org/2000/svg" p-id="22381" xmlns:xlink="http://www.w3.org/1999/xlink" width="200" height="200"><path d="M906.614499 820.150242l0 46.716998c0 51.388391-42.044582 93.432972-93.432972 93.432972L159.14765 960.300212c-51.856042 0-93.432972-42.044582-93.432972-93.432972L65.714677 212.833363c0-51.388391 41.577954-93.432972 93.432972-93.432972l654.033877 0c51.388391 0 93.432972 42.044582 93.432972 93.432972l0 46.716998L486.164588 259.550361c-51.855018 0-93.432972 42.044582-93.432972 93.432972l0 373.733936c0 51.388391 41.577954 93.432972 93.432972 93.432972L906.614499 820.150242zM486.164588 726.716246l467.166909 0L953.331497 352.983333 486.164588 352.983333 486.164588 726.716246zM673.031557 609.925287c-38.775118 0-70.074985-31.299867-70.074985-70.074985s31.299867-70.074985 70.074985-70.074985c38.775118 0 70.074985 31.299867 70.074985 70.074985S711.806675 609.925287 673.031557 609.925287z" p-id="22382" fill="#ffffff"></path></svg>