<?xml version="1.0" standalone="no"?><!DOCTYPE svg PUBLIC "-//W3C//DTD SVG 1.1//EN" "http://www.w3.org/Graphics/SVG/1.1/DTD/svg11.dtd"><svg t="1724234290287" class="icon" viewBox="0 0 1271 1024" version="1.1" xmlns="http://www.w3.org/2000/svg" p-id="10015" xmlns:xlink="http://www.w3.org/1999/xlink" width="248.2421875" height="200"><path d="M229.726727 282.479836h811.70581c42.301356 0 43.007555 21.998117 76.587346 74.150957L1271.159264 601.328952v348.580118A75.386806 75.386806 0 0 1 1194.571918 1023.989407H76.587346A75.386806 75.386806 0 0 1 0 949.90907v-347.097099l153.139381-246.322417C194.098958 297.521888 187.495991 282.479836 229.762037 282.479836z m11.157954 70.61996L70.619959 626.434347h411.361262S459.135664 812.12953 635.579632 812.12953c175.949628 0 155.43453-185.695182 155.43453-185.695183H1200.539305L1045.775664 353.099796H240.884681zM651.257263 0h3.954718c4.166578 0 8.121295 2.118599 11.087333 5.861457 2.930728 3.742858 4.590297 8.827495 4.590297 14.159301v136.508381c0 5.296497-1.659569 10.416444-4.590297 14.123992a14.194612 14.194612 0 0 1-11.087333 5.896767h-3.954718C642.606318 176.549898 635.579632 167.581163 635.579632 156.529139V20.020758c0-5.296497 1.659569-10.416444 4.590297-14.123991A14.194612 14.194612 0 0 1 651.257263 0zM289.118113 77.258235a22.598387 22.598387 0 0 1 31.990841 0l95.972524 95.972525a22.457147 22.457147 0 0 1 0 31.990841 22.598387 22.598387 0 0 1-31.990841 0L289.118113 109.249077A22.457147 22.457147 0 0 1 282.479836 93.218346c0-6.073316 2.401079-11.864153 6.638277-15.995421zM982.041151 77.187615c4.237198 4.166578 6.638276 9.957414 6.638276 16.030731a22.492457 22.492457 0 0 1-6.638276 15.995421l-95.972524 96.043144a22.598387 22.598387 0 1 1-31.990842-32.026151l96.078455-96.043145a22.598387 22.598387 0 0 1 31.884911 0z" fill="#9B9B9B" p-id="10016"></path></svg>