<?xml version="1.0" standalone="no"?><!DOCTYPE svg PUBLIC "-//W3C//DTD SVG 1.1//EN" "http://www.w3.org/Graphics/SVG/1.1/DTD/svg11.dtd"><svg t="1728551070573" class="icon" viewBox="0 0 1024 1024" version="1.1" xmlns="http://www.w3.org/2000/svg" p-id="8624" xmlns:xlink="http://www.w3.org/1999/xlink" width="200" height="200"><path d="M512 0C229.376 0 0 229.376 0 512s229.376 512 512 512 512-229.376 512-512S794.624 0 512 0z m0 942.08c-237.568 0-430.08-192.512-430.08-430.08s192.512-430.08 430.08-430.08 430.08 192.512 430.08 430.08-192.512 430.08-430.08 430.08z" p-id="8625" fill="#e6e6e6"></path><path d="M671.232 352.768c15.872 15.872 15.872 41.984 0 57.856L569.856 512l101.376 101.376c15.872 15.872 15.872 41.984 0 57.856-8.192 8.192-18.432 11.776-29.184 12.288-10.752-0.512-20.992-4.096-29.184-12.288L512 569.856l-101.376 101.376c-15.872 15.872-41.984 15.872-57.856 0-8.192-8.192-11.776-18.432-12.288-29.184s4.096-20.48 12.288-29.184L454.144 512 352.768 410.624c-15.872-15.872-15.872-41.984 0-57.856s41.984-15.872 57.856 0L512 454.144l101.376-101.376c15.872-15.872 41.984-15.872 57.856 0z" p-id="8626" fill="#e6e6e6"></path></svg>